<svg width="53" height="53" viewBox="0 0 53 53" fill="none" xmlns="http://www.w3.org/2000/svg">
<g filter="url(#filter0_d_205_253)">
<path d="M48.1561 24.0671C47.7694 28.2517 46.1989 32.2396 43.6285 35.5642C41.058 38.8888 37.5939 41.4126 33.6414 42.8402C29.6889 44.2679 25.4116 44.5404 21.3099 43.6258C17.2082 42.7112 13.4518 40.6474 10.4803 37.6759C7.50871 34.7043 5.4449 30.9479 4.53032 26.8462C3.61574 22.7445 3.88822 18.4672 5.31589 14.5147C6.74355 10.5623 9.26734 7.09811 12.5919 4.52764C15.9166 1.95718 19.9045 0.386709 24.089 0C21.6391 3.31449 20.4602 7.39823 20.7667 11.5085C21.0732 15.6187 22.8448 19.4824 25.7592 22.3969C28.6737 25.3113 32.5374 27.0829 36.6477 27.3894C40.7579 27.696 44.8416 26.517 48.1561 24.0671Z" fill="#FFF4BC"/>
<path d="M46.8548 26.0984C46.2242 29.3124 44.8527 32.346 42.8374 34.9525C40.3831 38.1269 37.0755 40.5366 33.3017 41.8997C29.5278 43.2629 25.4438 43.523 21.5275 42.6498C17.6112 41.7765 14.0246 39.806 11.1874 36.9688C8.35012 34.1315 6.37959 30.5449 5.50635 26.6286C4.63311 22.7123 4.89328 18.6283 6.25641 14.8545C7.61955 11.0806 10.0293 7.77305 13.2036 5.31876C15.8102 3.30346 18.8438 1.93195 22.0577 1.30136C20.3069 4.41365 19.5014 7.98867 19.7695 11.5828C20.0938 15.9319 21.9683 20.0202 25.0521 23.104C28.136 26.1878 32.2242 28.0623 36.5733 28.3867C40.1675 28.6547 43.7425 27.8493 46.8548 26.0984Z" stroke="#FFF4BC" stroke-width="2" stroke-linecap="round" stroke-linejoin="round"/>
</g>
<defs>
<filter id="filter0_d_205_253" x="0" y="0" width="52.1562" height="52.1561" filterUnits="userSpaceOnUse" color-interpolation-filters="sRGB">
<feFlood flood-opacity="0" result="BackgroundImageFix"/>
<feColorMatrix in="SourceAlpha" type="matrix" values="0 0 0 0 0 0 0 0 0 0 0 0 0 0 0 0 0 0 127 0" result="hardAlpha"/>
<feOffset dy="4"/>
<feGaussianBlur stdDeviation="2"/>
<feComposite in2="hardAlpha" operator="out"/>
<feColorMatrix type="matrix" values="0 0 0 0 0 0 0 0 0 0 0 0 0 0 0 0 0 0 0.25 0"/>
<feBlend mode="normal" in2="BackgroundImageFix" result="effect1_dropShadow_205_253"/>
<feBlend mode="normal" in="SourceGraphic" in2="effect1_dropShadow_205_253" result="shape"/>
</filter>
</defs>
</svg>
