<svg width="50" height="50" viewBox="0 0 50 50" fill="none" xmlns="http://www.w3.org/2000/svg">
<path d="M9.1 37.5L7.325 39.275C6.85937 39.7434 6.59802 40.377 6.59802 41.0375C6.59802 41.698 6.85937 42.3316 7.325 42.8C7.79341 43.2656 8.42704 43.527 9.0875 43.527C9.74796 43.527 10.3816 43.2656 10.85 42.8L12.625 41.025C13.0346 40.5467 13.2486 39.9316 13.2243 39.3024C13.2 38.6732 12.9391 38.0763 12.4939 37.6311C12.0487 37.1859 11.4518 36.925 10.8226 36.9007C10.1934 36.8764 9.57825 37.0904 9.1 37.5ZM7.5 25C7.5 24.337 7.23661 23.7011 6.76777 23.2322C6.29893 22.7634 5.66304 22.5 5 22.5H2.5C1.83696 22.5 1.20107 22.7634 0.732233 23.2322C0.263392 23.7011 0 24.337 0 25C0 25.663 0.263392 26.2989 0.732233 26.7678C1.20107 27.2366 1.83696 27.5 2.5 27.5H5C5.66304 27.5 6.29893 27.2366 6.76777 26.7678C7.23661 26.2989 7.5 25.663 7.5 25ZM25 7.5C25.663 7.5 26.2989 7.23661 26.7678 6.76777C27.2366 6.29893 27.5 5.66304 27.5 5V2.5C27.5 1.83696 27.2366 1.20107 26.7678 0.732233C26.2989 0.263392 25.663 0 25 0C24.337 0 23.7011 0.263392 23.2322 0.732233C22.7634 1.20107 22.5 1.83696 22.5 2.5V5C22.5 5.66304 22.7634 6.29893 23.2322 6.76777C23.7011 7.23661 24.337 7.5 25 7.5ZM9.1 12.625C9.56565 13.0869 10.1942 13.3472 10.85 13.35C11.179 13.3519 11.5052 13.2888 11.8098 13.1644C12.1144 13.04 12.3914 12.8567 12.625 12.625C13.0906 12.1566 13.352 11.523 13.352 10.8625C13.352 10.202 13.0906 9.56841 12.625 9.1L10.85 7.325C10.3717 6.91543 9.75656 6.70142 9.12737 6.72572C8.49818 6.75002 7.90133 7.01086 7.45609 7.45609C7.01086 7.90133 6.75002 8.49818 6.72572 9.12737C6.70142 9.75656 6.91543 10.3717 7.325 10.85L9.1 12.625ZM39.1 13.35C39.7558 13.3472 40.3843 13.0869 40.85 12.625L42.625 10.85C42.8867 10.6259 43.0993 10.3501 43.2493 10.0399C43.3994 9.72976 43.4837 9.39193 43.497 9.04763C43.5103 8.70334 43.4523 8.36001 43.3266 8.03919C43.2009 7.71838 43.0103 7.42701 42.7666 7.18337C42.523 6.93974 42.2316 6.74909 41.9108 6.62341C41.59 6.49772 41.2467 6.43971 40.9024 6.453C40.5581 6.4663 40.2202 6.55063 39.9101 6.70069C39.5999 6.85074 39.3241 7.0633 39.1 7.325L37.5 9.1C37.0344 9.56841 36.773 10.202 36.773 10.8625C36.773 11.523 37.0344 12.1566 37.5 12.625C37.9407 13.0634 38.529 13.3219 39.15 13.35H39.1ZM47.5 22.5H45C44.337 22.5 43.7011 22.7634 43.2322 23.2322C42.7634 23.7011 42.5 24.337 42.5 25C42.5 25.663 42.7634 26.2989 43.2322 26.7678C43.7011 27.2366 44.337 27.5 45 27.5H47.5C48.163 27.5 48.7989 27.2366 49.2678 26.7678C49.7366 26.2989 50 25.663 50 25C50 24.337 49.7366 23.7011 49.2678 23.2322C48.7989 22.7634 48.163 22.5 47.5 22.5ZM25 42.5C24.337 42.5 23.7011 42.7634 23.2322 43.2322C22.7634 43.7011 22.5 44.337 22.5 45V47.5C22.5 48.163 22.7634 48.7989 23.2322 49.2678C23.7011 49.7366 24.337 50 25 50C25.663 50 26.2989 49.7366 26.7678 49.2678C27.2366 48.7989 27.5 48.163 27.5 47.5V45C27.5 44.337 27.2366 43.7011 26.7678 43.2322C26.2989 42.7634 25.663 42.5 25 42.5ZM40.9 37.5C40.425 37.2358 39.8769 37.1336 39.3386 37.2088C38.8004 37.2841 38.3013 37.5327 37.917 37.917C37.5327 38.3013 37.2841 38.8004 37.2088 39.3386C37.1336 39.8769 37.2358 40.425 37.5 40.9L39.275 42.675C39.7434 43.1406 40.377 43.402 41.0375 43.402C41.698 43.402 42.3316 43.1406 42.8 42.675C43.2656 42.2066 43.527 41.573 43.527 40.9125C43.527 40.252 43.2656 39.6184 42.8 39.15L40.9 37.5ZM25 11.25C22.2805 11.25 19.6221 12.0564 17.3609 13.5673C15.0997 15.0782 13.3374 17.2256 12.2967 19.7381C11.256 22.2506 10.9837 25.0153 11.5142 27.6825C12.0447 30.3497 13.3543 32.7997 15.2773 34.7227C17.2003 36.6457 19.6503 37.9553 22.3175 38.4858C24.9847 39.0163 27.7494 38.744 30.2619 37.7033C32.7744 36.6626 34.9218 34.9003 36.4327 32.6391C37.9436 30.3779 38.75 27.7195 38.75 25C38.7434 21.3553 37.2926 17.8618 34.7154 15.2846C32.1382 12.7074 28.6447 11.2566 25 11.25ZM25 33.75C23.2694 33.75 21.5777 33.2368 20.1388 32.2754C18.6998 31.3139 17.5783 29.9473 16.9161 28.3485C16.2538 26.7496 16.0805 24.9903 16.4181 23.293C16.7557 21.5956 17.5891 20.0365 18.8128 18.8128C20.0365 17.5891 21.5956 16.7557 23.293 16.4181C24.9903 16.0805 26.7496 16.2538 28.3485 16.9161C29.9473 17.5783 31.3139 18.6998 32.2754 20.1388C33.2368 21.5777 33.75 23.2694 33.75 25C33.75 27.3206 32.8281 29.5462 31.1872 31.1872C29.5462 32.8281 27.3206 33.75 25 33.75Z" fill="#FFF4BC"/>
<ellipse cx="25" cy="24.5" rx="10" ry="10.5" fill="#FFF4BC"/>
</svg>
