<?xml version="1.0" standalone="no"?>
<!DOCTYPE svg PUBLIC "-//W3C//DTD SVG 20010904//EN"
 "http://www.w3.org/TR/2001/REC-SVG-20010904/DTD/svg10.dtd">
<svg version="1.0" xmlns="http://www.w3.org/2000/svg"
 width="920.000000pt" height="364.000000pt" viewBox="0 0 920.000000 364.000000"
 preserveAspectRatio="xMidYMid meet" class=''>
<metadata>
Created by potrace 1.16, written by Peter Selinger 2001-2019
</metadata>
<g transform="translate(0.000000,364.000000) scale(0.100000,-0.100000)"
fill="#788ccf" stroke="none">
<path d="M5600 3235 l0 -255 -120 0 c-100 0 -120 -2 -120 -15 0 -12 20 -15
120 -15 l120 0 0 -1225 0 -1225 75 0 c60 0 75 3 75 15 0 12 -13 15 -55 15
l-55 0 0 1210 0 1210 115 0 c96 0 115 3 115 15 0 12 -19 15 -115 15 l-115 0 0
235 0 235 55 0 c48 0 55 2 55 20 0 18 -7 20 -75 20 l-75 0 0 -255z"/>
<path d="M8170 3470 c0 -18 7 -20 55 -20 l55 0 0 -220 0 -220 -160 0 c-136 0
-160 -2 -160 -15 0 -13 24 -15 160 -15 l160 0 0 -1225 0 -1225 -55 0 c-42 0
-55 -3 -55 -15 0 -12 14 -15 70 -15 l70 0 0 1240 0 1240 125 0 c104 0 125 2
125 15 0 13 -21 15 -125 15 l-125 0 0 240 0 240 -70 0 c-63 0 -70 -2 -70 -20z"/>
<path d="M1696 3140 c-59 -18 -106 -83 -106 -147 0 -121 138 -200 220 -125 31
28 53 92 31 92 -6 0 -11 -9 -11 -21 0 -31 -53 -79 -87 -79 -58 0 -103 57 -103
129 0 80 39 131 100 131 41 0 64 -19 81 -68 17 -51 29 -37 29 33 0 68 -4 76
-25 48 -10 -13 -16 -15 -26 -6 -21 16 -70 23 -103 13z"/>
<path d="M2526 3140 c-59 -18 -106 -83 -106 -147 0 -121 138 -200 220 -125 31
28 53 92 31 92 -6 0 -11 -9 -11 -21 0 -31 -53 -79 -87 -79 -58 0 -103 57 -103
129 0 80 39 131 100 131 41 0 64 -19 81 -68 17 -51 29 -37 29 33 0 68 -4 76
-25 48 -10 -13 -16 -15 -26 -6 -21 16 -70 23 -103 13z"/>
<path d="M6566 3140 c-59 -18 -106 -83 -106 -147 0 -121 138 -200 220 -125 31
28 53 92 31 92 -6 0 -11 -9 -11 -21 0 -31 -53 -79 -87 -79 -58 0 -103 57 -103
129 0 80 39 131 100 131 41 0 64 -19 81 -68 17 -51 29 -37 29 33 0 68 -4 76
-25 48 -10 -13 -16 -15 -26 -6 -21 16 -70 23 -103 13z"/>
<path d="M7396 3140 c-59 -18 -106 -83 -106 -147 0 -121 138 -200 220 -125 31
28 53 92 31 92 -6 0 -11 -9 -11 -21 0 -31 -53 -79 -87 -79 -58 0 -103 57 -103
129 0 80 39 131 100 131 41 0 64 -19 81 -68 17 -51 29 -37 29 33 0 68 -4 76
-25 48 -10 -13 -16 -15 -26 -6 -21 16 -70 23 -103 13z"/>
<path d="M1080 3131 c0 -5 9 -11 20 -14 19 -5 20 -14 20 -126 0 -114 -1 -121
-20 -121 -11 0 -20 -4 -20 -10 0 -6 28 -10 65 -10 37 0 65 4 65 10 0 6 -9 10
-20 10 -18 0 -20 7 -20 60 l0 60 55 0 55 0 0 -60 c0 -53 -2 -60 -20 -60 -11 0
-20 -4 -20 -10 0 -6 28 -10 65 -10 37 0 65 4 65 10 0 6 -9 10 -20 10 -19 0
-20 7 -20 121 0 112 1 121 20 126 41 11 18 23 -45 23 -63 0 -86 -12 -45 -23
17 -4 20 -14 20 -56 l0 -51 -55 0 -55 0 0 51 c0 42 3 52 20 56 41 11 18 23
-45 23 -36 0 -65 -4 -65 -9z"/>
<path d="M2710 3131 c0 -5 9 -11 20 -14 19 -5 20 -14 20 -126 0 -114 -1 -121
-20 -121 -11 0 -20 -4 -20 -10 0 -6 28 -10 65 -10 37 0 65 4 65 10 0 6 -9 10
-20 10 -18 0 -20 7 -20 60 l0 60 55 0 55 0 0 -60 c0 -53 -2 -60 -20 -60 -11 0
-20 -4 -20 -10 0 -6 28 -10 65 -10 37 0 65 4 65 10 0 6 -9 10 -20 10 -19 0
-20 7 -20 121 0 112 1 121 20 126 41 11 18 23 -45 23 -63 0 -86 -12 -45 -23
17 -4 20 -14 20 -56 l0 -51 -55 0 -55 0 0 51 c0 42 3 52 20 56 41 11 18 23
-45 23 -36 0 -65 -4 -65 -9z"/>
<path d="M5950 3131 c0 -5 9 -11 20 -14 19 -5 20 -14 20 -126 0 -114 -1 -121
-20 -121 -11 0 -20 -4 -20 -10 0 -6 28 -10 65 -10 37 0 65 4 65 10 0 6 -9 10
-20 10 -18 0 -20 7 -20 60 l0 60 55 0 55 0 0 -60 c0 -53 -2 -60 -20 -60 -11 0
-20 -4 -20 -10 0 -6 28 -10 65 -10 37 0 65 4 65 10 0 6 -9 10 -20 10 -19 0
-20 7 -20 121 0 112 1 121 20 126 41 11 18 23 -45 23 -63 0 -86 -12 -45 -23
17 -4 20 -14 20 -56 l0 -51 -55 0 -55 0 0 51 c0 42 3 52 20 56 41 11 18 23
-45 23 -36 0 -65 -4 -65 -9z"/>
<path d="M7580 3131 c0 -5 9 -11 20 -14 19 -5 20 -14 20 -126 0 -114 -1 -121
-20 -121 -11 0 -20 -4 -20 -10 0 -6 28 -10 65 -10 37 0 65 4 65 10 0 6 -9 10
-20 10 -18 0 -20 7 -20 60 l0 60 55 0 55 0 0 -60 c0 -53 -2 -60 -20 -60 -11 0
-20 -4 -20 -10 0 -6 28 -10 65 -10 37 0 65 4 65 10 0 6 -9 10 -20 10 -19 0
-20 7 -20 121 0 112 1 121 20 126 41 11 18 23 -45 23 -63 0 -86 -12 -45 -23
17 -4 20 -14 20 -56 l0 -51 -55 0 -55 0 0 51 c0 42 3 52 20 56 41 11 18 23
-45 23 -36 0 -65 -4 -65 -9z"/>
<path d="M1950 3035 c0 -13 27 -15 185 -15 158 0 185 2 185 15 0 13 -27 15
-185 15 -158 0 -185 -2 -185 -15z"/>
<path d="M6820 3035 c0 -13 27 -15 185 -15 158 0 185 2 185 15 0 13 -27 15
-185 15 -158 0 -185 -2 -185 -15z"/>
<path d="M1427 2978 c-24 -19 -27 -61 -3 -66 15 -3 18 1 14 22 -8 41 54 48 65
7 6 -25 -7 -47 -62 -104 l-46 -48 70 3 c68 3 70 4 73 31 2 15 -1 27 -7 27 -6
0 -11 -7 -11 -15 0 -10 -10 -15 -32 -15 l-33 0 43 39 c32 29 42 46 42 69 0 51
-70 82 -113 50z"/>
<path d="M6297 2978 c-24 -19 -27 -61 -3 -66 15 -3 18 1 14 22 -8 41 54 48 65
7 6 -25 -7 -47 -62 -104 l-46 -48 70 3 c68 3 70 4 73 31 2 15 -1 27 -7 27 -6
0 -11 -7 -11 -15 0 -10 -10 -15 -32 -15 l-33 0 43 39 c32 29 42 46 42 69 0 51
-70 82 -113 50z"/>
<path d="M1950 2955 c0 -13 27 -15 185 -15 158 0 185 2 185 15 0 13 -27 15
-185 15 -158 0 -185 -2 -185 -15z"/>
<path d="M6820 2955 c0 -13 27 -15 185 -15 158 0 185 2 185 15 0 13 -27 15
-185 15 -158 0 -185 -2 -185 -15z"/>
<path d="M2540 2478 l-1 -303 -357 -205 -357 -206 -3 -426 -2 -426 366 -212
366 -211 361 209 362 208 2 430 3 429 -355 204 -355 204 0 304 c0 263 -2 303
-15 303 -13 0 -15 -40 -15 -302z m405 -556 l310 -179 3 -405 2 -405 -348 -202
c-192 -110 -354 -201 -360 -201 -6 0 -165 89 -354 198 l-343 198 -2 410 -3
409 352 202 351 202 41 -24 c23 -13 181 -104 351 -203z"/>
<path d="M2225 1900 c-170 -99 -311 -187 -313 -195 -2 -8 0 -15 4 -15 3 0 150
82 325 183 281 161 351 208 307 207 -7 0 -152 -81 -323 -180z"/>
<path d="M3170 1335 c0 -327 2 -375 15 -375 13 0 15 48 15 375 0 327 -2 375
-15 375 -13 0 -15 -48 -15 -375z"/>
<path d="M1910 968 c0 -11 603 -368 637 -376 7 -2 13 3 13 10 0 12 -602 368
-636 376 -8 2 -14 -2 -14 -10z"/>
<path d="M7410 2478 l-1 -303 -357 -205 -357 -205 0 -428 0 -428 363 -210 363
-210 362 209 362 209 2 429 3 429 -358 206 -357 205 -3 302 c-1 190 -6 302
-12 302 -6 0 -10 -111 -10 -302z m370 -536 l345 -199 3 -405 2 -405 -349 -201
c-192 -111 -355 -202 -363 -201 -7 0 -166 89 -353 198 l-340 197 -2 410 -3
409 348 201 c191 111 352 201 357 199 6 -2 165 -93 355 -203z"/>
<path d="M7095 1900 c-170 -98 -311 -186 -313 -195 -2 -8 0 -15 5 -15 17 1
637 366 641 378 2 6 -2 12 -10 12 -7 0 -152 -81 -323 -180z"/>
<path d="M8040 1335 c0 -327 2 -375 15 -375 13 0 15 48 15 375 0 327 -2 375
-15 375 -13 0 -15 -48 -15 -375z"/>
<path d="M6780 967 c0 -19 631 -380 644 -367 5 5 8 11 5 14 -12 11 -632 366
-640 366 -5 0 -9 -6 -9 -13z"/>
<path d="M4259 2188 c-35 -100 -51 -135 -67 -143 -36 -16 -25 -25 28 -25 28 0
50 5 50 10 0 6 -7 10 -15 10 -16 0 -18 12 -9 48 6 19 13 22 55 22 44 0 51 -3
59 -26 14 -35 13 -44 -5 -44 -8 0 -15 -4 -15 -10 0 -6 27 -10 60 -10 33 0 60
4 60 10 0 6 -8 10 -19 10 -15 0 -28 27 -67 140 -26 77 -53 140 -59 140 -5 0
-31 -60 -56 -132z m77 -55 c-2 -3 -20 -3 -39 -1 l-35 3 21 55 20 55 19 -54
c10 -30 16 -56 14 -58z"/>
<path d="M3910 2301 c0 -5 10 -11 21 -14 21 -6 22 -10 16 -77 -7 -80 -38 -147
-77 -167 -20 -10 -26 -22 -30 -58 -6 -48 5 -62 16 -20 11 45 39 55 147 55 91
0 100 -2 122 -25 14 -13 25 -31 25 -40 0 -8 5 -15 11 -15 6 0 8 7 5 16 -3 9
-6 31 -6 50 0 30 -3 34 -25 34 l-25 0 0 121 c0 112 1 121 20 126 51 13 9 23
-100 23 -66 0 -120 -4 -120 -9z m150 -136 l0 -125 -73 0 -74 0 23 48 c14 27
26 75 30 112 8 90 8 90 54 90 l40 0 0 -125z"/>
<path d="M4480 2301 c0 -5 9 -11 20 -14 19 -5 20 -14 20 -126 0 -114 -1 -121
-20 -121 -11 0 -20 -4 -20 -10 0 -6 28 -10 65 -10 37 0 65 4 65 10 0 6 -9 10
-20 10 -17 0 -20 7 -20 43 0 31 6 49 20 62 11 10 22 16 24 14 1 -2 20 -29 40
-59 28 -43 33 -56 21 -58 -8 -2 -15 -8 -15 -13 0 -5 27 -9 60 -9 57 0 80 12
42 22 -10 3 -42 38 -70 78 l-51 74 46 40 c26 23 54 44 65 48 33 13 19 28 -27
28 -42 0 -45 -2 -40 -23 5 -19 -5 -32 -54 -76 l-61 -52 0 61 c0 53 3 63 20 67
41 11 18 23 -45 23 -36 0 -65 -4 -65 -9z"/>
<path d="M673 1913 c-26 -5 -31 -23 -8 -23 12 0 15 -14 15 -70 0 -56 -3 -70
-15 -70 -8 0 -15 -4 -15 -10 0 -5 23 -10 50 -10 28 0 50 5 50 10 0 6 -7 10
-15 10 -24 0 -21 112 3 133 39 36 62 8 62 -73 0 -43 -3 -53 -20 -57 -37 -10
-20 -23 30 -23 28 0 50 5 50 10 0 6 -7 10 -15 10 -12 0 -15 14 -15 68 0 37 -4
72 -8 78 -12 18 -48 25 -76 15 -17 -7 -26 -7 -26 -1 0 10 -8 11 -47 3z"/>
<path d="M4784 1878 c-4 -6 3 -20 16 -30 22 -18 7 -18 -544 -18 -496 0 -566
-2 -566 -15 0 -13 69 -15 563 -15 469 -1 559 -3 545 -14 -18 -13 -24 -36 -10
-36 4 0 40 12 80 27 74 28 89 47 50 62 -13 5 -46 18 -75 30 -37 14 -54 17 -59
9z"/>
<path d="M8483 553 c-26 -5 -31 -23 -8 -23 12 0 15 -14 15 -70 0 -56 -3 -70
-15 -70 -8 0 -15 -4 -15 -10 0 -5 23 -10 50 -10 28 0 50 5 50 10 0 6 -7 10
-15 10 -24 0 -21 112 3 133 39 36 62 8 62 -73 0 -43 -3 -53 -20 -57 -37 -10
-20 -23 30 -23 28 0 50 5 50 10 0 6 -7 10 -15 10 -12 0 -15 14 -15 68 0 37 -4
72 -8 78 -12 18 -48 25 -76 15 -17 -7 -26 -7 -26 -1 0 10 -8 11 -47 3z"/>
</g>
</svg>
