<?xml version="1.0" standalone="no"?>
<!DOCTYPE svg PUBLIC "-//W3C//DTD SVG 20010904//EN"
 "http://www.w3.org/TR/2001/REC-SVG-20010904/DTD/svg10.dtd">
<svg version="1.0" xmlns="http://www.w3.org/2000/svg"
 width="307.000000pt" height="105.000000pt" viewBox="0 0 307.000000 105.000000"
 preserveAspectRatio="xMidYMid meet">
<metadata>
Created by potrace 1.16, written by Peter Selinger 2001-2019
</metadata>
<g transform="translate(0.000000,105.000000) scale(0.100000,-0.100000)"
fill="#788ccf" stroke="#000000">
<path d="M2200 690 l0 -150 -75 0 c-60 0 -75 -3 -75 -15 0 -13 49 -15 385 -15
336 0 385 2 385 15 0 12 -15 15 -75 15 l-75 0 0 150 0 150 -25 0 c-14 0 -25
-4 -25 -10 0 -5 7 -10 15 -10 13 0 15 -21 15 -130 0 -109 -2 -130 -15 -130 -8
0 -15 -4 -15 -10 0 -6 -68 -10 -185 -10 -117 0 -185 4 -185 10 0 6 -7 10 -15
10 -13 0 -15 21 -15 130 0 109 2 130 15 130 8 0 15 5 15 10 0 6 -11 10 -25 10
l-25 0 0 -150z"/>
<path d="M2338 812 c18 -12 -19 -158 -45 -177 -16 -13 -14 -14 26 -15 38 0 42
2 29 13 -14 11 -13 18 2 77 19 71 21 68 38 -35 4 -29 13 -50 20 -50 7 0 35 34
62 75 27 41 50 71 50 65 0 -32 -32 -122 -47 -132 -14 -11 -9 -13 33 -13 33 0
44 3 35 9 -23 15 15 170 43 181 17 7 14 9 -16 9 -36 1 -40 -2 -92 -80 l-54
-80 -13 78 -14 78 -35 3 c-23 2 -30 0 -22 -6z"/>
<path d="M1181 791 c-10 -6 -10 -10 -1 -13 8 -2 6 -25 -9 -85 -12 -45 -21 -89
-21 -98 0 -28 24 -11 34 24 10 36 28 36 36 1 3 -13 14 -28 23 -34 15 -9 22 -6
38 13 21 25 24 41 10 41 -5 0 -13 -9 -16 -20 -10 -30 -25 -24 -25 10 0 21 -5
30 -17 30 -14 0 -14 2 3 21 10 11 20 16 22 10 7 -20 42 -12 42 9 0 27 -39 27
-74 -1 -14 -11 -26 -19 -26 -17 0 2 7 28 15 58 8 30 15 56 15 58 0 6 -36 1
-49 -7z"/>
<path d="M250 660 c0 -6 33 -10 80 -10 47 0 80 4 80 10 0 6 -33 10 -80 10 -47
0 -80 -4 -80 -10z"/>
<path d="M280 603 c-19 -7 -49 -44 -50 -60 0 -20 18 -15 25 7 9 27 43 46 58
31 8 -8 5 -30 -9 -78 -19 -65 -44 -96 -44 -53 0 29 -34 23 -38 -7 -3 -17 3
-24 22 -29 15 -3 32 -1 40 6 11 8 20 8 35 1 11 -6 27 -11 36 -11 20 0 65 44
65 65 0 24 -13 18 -32 -15 -17 -30 -41 -39 -53 -20 -9 14 21 121 39 139 15 14
16 13 16 -7 0 -15 6 -22 20 -22 15 0 20 7 20 24 0 29 -30 42 -60 26 -14 -7
-26 -8 -39 0 -21 11 -28 11 -51 3z"/>
<path d="M587 573 c-19 -19 5 -23 133 -23 118 0 140 2 140 15 0 13 -21 15
-133 15 -74 0 -137 -3 -140 -7z"/>
<path d="M1597 573 c-19 -19 5 -23 133 -23 118 0 140 2 140 15 0 13 -21 15
-133 15 -74 0 -137 -3 -140 -7z"/>
<path d="M1040 525 c0 -13 27 -15 185 -15 158 0 185 2 185 15 0 13 -27 15
-185 15 -158 0 -185 -2 -185 -15z"/>
<path d="M587 494 c-19 -20 5 -24 134 -24 108 0 140 3 137 13 -5 13 -258 24
-271 11z"/>
<path d="M1597 494 c-19 -20 5 -24 134 -24 108 0 140 3 137 13 -5 13 -258 24
-271 11z"/>
<path d="M2090 350 l0 -150 25 0 c14 0 25 5 25 10 0 6 -7 10 -15 10 -13 0 -15
21 -15 130 0 109 2 130 15 130 8 0 15 5 15 10 0 6 -11 10 -25 10 l-25 0 0
-150z"/>
<path d="M2330 490 c0 -5 7 -10 15 -10 13 0 15 -21 15 -130 0 -109 -2 -130
-15 -130 -8 0 -15 -4 -15 -10 0 -5 11 -10 25 -10 l25 0 0 150 0 150 -25 0
c-14 0 -25 -4 -25 -10z"/>
<path d="M2439 483 c-22 -25 -18 -102 5 -119 46 -33 96 -1 96 61 0 43 -25 75
-59 75 -16 0 -35 -7 -42 -17z m66 -58 c0 -41 -3 -50 -19 -53 -24 -5 -36 14
-36 59 0 42 7 51 35 47 17 -3 20 -10 20 -53z"/>
<path d="M2680 459 c0 -37 1 -38 29 -33 32 7 45 -6 36 -36 -8 -25 -53 -28 -51
-4 0 9 -5 19 -11 21 -17 6 -17 -29 -1 -45 27 -27 98 0 98 37 0 24 -31 51 -58
51 -12 0 -22 5 -22 10 0 6 9 10 19 10 11 0 26 3 35 6 30 11 16 21 -29 21 l-45
0 0 -38z"/>
<path d="M1101 481 c-10 -6 -10 -10 -1 -13 8 -2 6 -25 -9 -85 -12 -45 -21 -89
-21 -98 0 -28 24 -11 34 24 10 36 28 36 36 1 3 -13 14 -28 23 -34 15 -9 22 -6
38 13 21 25 24 41 10 41 -5 0 -13 -9 -16 -20 -10 -30 -25 -24 -25 10 0 21 -5
30 -17 30 -14 0 -14 2 3 21 10 11 20 16 22 10 7 -20 42 -12 42 9 0 27 -39 27
-74 -1 -14 -11 -26 -19 -26 -17 0 2 7 28 15 58 8 30 15 56 15 58 0 6 -36 1
-49 -7z"/>
<path d="M2223 468 c15 -12 15 -18 -3 -88 -10 -41 -27 -80 -37 -87 -14 -11
-10 -13 33 -13 32 0 44 3 35 9 -19 12 13 149 41 174 20 16 19 17 -33 17 -44 0
-50 -2 -36 -12z"/>
<path d="M2584 379 c-3 -6 -1 -15 7 -19 10 -7 10 -11 0 -24 -11 -13 -11 -16 3
-16 17 0 32 42 21 59 -8 14 -22 14 -31 0z"/>
<path d="M1238 323 c6 -2 12 -20 12 -38 0 -18 -6 -36 -12 -38 -7 -3 2 -6 20
-6 18 -1 31 3 28 8 -3 4 3 16 14 26 19 17 20 17 20 -3 0 -11 -6 -23 -12 -25
-7 -3 5 -5 27 -5 22 0 34 2 28 5 -7 2 -13 20 -13 38 0 18 6 36 13 38 6 3 -6 6
-28 6 -24 0 -35 -3 -27 -7 9 -7 7 -13 -9 -28 l-22 -19 5 28 c5 25 3 27 -26 26
-17 0 -25 -3 -18 -6z"/>
</g>
</svg>
