<?xml version="1.0" encoding="UTF-8" standalone="no"?>
<!-- Created with Inkscape (http://www.inkscape.org/) -->

<svg
   width="210mm"
   height="297mm"
   viewBox="0 0 210 297"
   version="1.1"
   id="svg5"
   xmlns="http://www.w3.org/2000/svg"
   xmlns:svg="http://www.w3.org/2000/svg">
  <defs
     id="defs2" />
  <g
     id="layer1">
    <path
       style="fill:none;stroke:#788ccf;stroke-width:0.264583px;stroke-linecap:butt;stroke-linejoin:miter;stroke-opacity:1"
       d="M 151.6102,49.419068 151.06574,93.15634"
       id="path869" />
    <path
       style="fill:none;stroke:#788ccf;stroke-width:0.264583px;stroke-linecap:butt;stroke-linejoin:miter;stroke-opacity:1"
       d="m 151.6102,49.419068 2.39232,-0.05503 -0.73408,43.772499"
       id="path871" />
    <path
       style="fill:none;stroke:#788ccf;stroke-width:0.264583px;stroke-linecap:butt;stroke-linejoin:miter;stroke-opacity:1"
       d="m 151.06574,93.156338 2.2027,-0.01979 1.04624,0.300556 0.0684,2.590199 -0.81686,0.348636 -1.89331,0.0236 -0.57813,-0.272081 -0.029,-2.971118"
       id="path1081" />
    <path
       style="fill:none;stroke:#788ccf;stroke-width:0.264583px;stroke-linecap:butt;stroke-linejoin:miter;stroke-opacity:1"
       d="m 153.67948,94.255999 0.0321,0.514784 1.2276,0.01114 0.0322,-0.598924 z"
       id="path1287" />
    <path
       style="fill:none;stroke:#788ccf;stroke-width:0.264583px;stroke-linecap:butt;stroke-linejoin:miter;stroke-opacity:1"
       d="m 154.97138,94.182998 0.46493,-0.571109 0.64008,0.07007 0.26299,0.290478 0.0443,1.316508 -0.26335,0.273683 -0.74407,0.03527 -0.42328,-0.284422 -0.0138,-0.531553"
       id="path1289" />
    <path
       style="fill:none;stroke:#788ccf;stroke-width:0.264583px;stroke-linecap:butt;stroke-linejoin:miter;stroke-opacity:1"
       d="m 151.09478,96.127458 -0.81542,61.577482"
       id="path1291" />
    <path
       style="fill:none;stroke:#788ccf;stroke-width:0.264583px;stroke-linecap:butt;stroke-linejoin:miter;stroke-opacity:1"
       d="m 153.56622,96.375938 -0.89397,61.270572"
       id="path1293" />
    <path
       style="fill:none;stroke:#788ccf;stroke-width:0.264583px;stroke-linecap:butt;stroke-linejoin:miter;stroke-opacity:1"
       d="m 150.27936,157.70494 2.39289,-0.0584 1.02783,0.32724 -0.0843,2.35236 -0.68206,0.44217 -2.22043,-0.0259 -0.44432,-0.45918 0.0104,-2.57827"
       id="path1295" />
    <path
       style="fill:none;stroke:#788ccf;stroke-width:0.264583px;stroke-linecap:butt;stroke-linejoin:miter;stroke-opacity:1"
       d="m 152.98175,158.82395 v 0.49906 l 1.13261,0.0373 -0.0611,-0.57215 -1.15764,0.0831 0.0744,-0.006"
       id="path1297" />
    <path
       style="fill:none;stroke:#788ccf;stroke-width:0.264583px;stroke-linecap:butt;stroke-linejoin:miter;stroke-opacity:1"
       d="m 154.05326,158.78816 0.40656,-0.45531 0.94077,0.0125 0.2213,0.19737 -0.0317,1.08153 -0.28989,0.49053 -0.59398,0.033 -0.59194,-0.78748"
       id="path1299" />
    <path
       style="fill:none;stroke:#788ccf;stroke-width:0.264583px;stroke-linecap:butt;stroke-linejoin:miter;stroke-opacity:1"
       d="m 151.04554,93.660043 -28.7317,-0.368506"
       id="path1301" />
    <path
       style="fill:none;stroke:#788ccf;stroke-width:0.264583px;stroke-linecap:butt;stroke-linejoin:miter;stroke-opacity:1"
       d="M 151.01131,95.390032 122.37398,95.043253"
       id="path1303" />
    <path
       style="fill:none;stroke:#788ccf;stroke-width:0.264583px;stroke-linecap:butt;stroke-linejoin:miter;stroke-opacity:1"
       d="m 111.57117,85.339374 -0.0385,3.83763 11.12072,0.121635 -0.006,-4.015873 -1.05761,-0.750273 -8.89547,-0.129128 z"
       id="path1305" />
    <path
       style="fill:none;stroke:#788ccf;stroke-width:0.264583px;stroke-linecap:butt;stroke-linejoin:miter;stroke-opacity:1"
       d="m 116.5214,84.026078 0.0734,-4.391793 1.18711,-0.0227 -0.0443,4.477335"
       id="path1307" />
    <path
       style="fill:none;stroke:#788ccf;stroke-width:0.264583px;stroke-linecap:butt;stroke-linejoin:miter;stroke-opacity:1"
       d="m 114.66244,84.419881 v -0.454274 l 1.85896,0.06047 1.21621,0.06284 2.1536,-0.03099 v 0.437756"
       id="path1309" />
    <path
       style="fill:none;stroke:#788ccf;stroke-width:0.264583px;stroke-linecap:butt;stroke-linejoin:miter;stroke-opacity:1"
       d="M 112.16078,89.158727 111.9965,99.356554"
       id="path1311" />
    <path
       style="fill:none;stroke:#788ccf;stroke-width:0.264583px;stroke-linecap:butt;stroke-linejoin:miter;stroke-opacity:1"
       d="M 122.30377,89.307658 122.21003,99.4418"
       id="path1313" />
    <path
       style="fill:none;stroke:#788ccf;stroke-width:0.264583px;stroke-linecap:butt;stroke-linejoin:miter;stroke-opacity:1"
       d="m 111.9965,99.356552 10.21353,0.08525"
       id="path1315" />
    <path
       style="fill:none;stroke:#788ccf;stroke-width:0.264583px;stroke-linecap:butt;stroke-linejoin:miter;stroke-opacity:1"
       d="m 122.21003,99.441798 0.41936,0.236691 -0.0327,4.073121 -0.744,0.53306 -9.85103,-0.0504 -0.7242,-0.65023 0.007,-4.035535 0.71244,-0.191963"
       id="path1317" />
    <path
       style="fill:none;stroke:#788ccf;stroke-width:0.264583px;stroke-linecap:butt;stroke-linejoin:miter;stroke-opacity:1"
       d="m 113.74206,104.49221 6.68026,0.0135"
       id="path1319" />
    <path
       style="fill:none;stroke:#788ccf;stroke-width:0.264583px;stroke-linecap:butt;stroke-linejoin:miter;stroke-opacity:1"
       d="m 116.27655,104.49946 -0.0152,1.30565"
       id="path1321" />
    <path
       style="fill:none;stroke:#788ccf;stroke-width:0.264583px;stroke-linecap:butt;stroke-linejoin:miter;stroke-opacity:1"
       d="m 117.46861,104.45818 0.005,1.33047"
       id="path1489" />
    <path
       style="fill:none;stroke:#788ccf;stroke-width:0.264583px;stroke-linecap:butt;stroke-linejoin:miter;stroke-opacity:1"
       d="m 115.95014,105.83414 1.81847,-0.004"
       id="path1491" />
    <path
       style="fill:none;stroke:#788ccf;stroke-width:0.264583px;stroke-linecap:butt;stroke-linejoin:miter;stroke-opacity:1"
       d="m 115.95014,105.83414 0.005,3.45937"
       id="path1602" />
    <path
       style="fill:none;stroke:#788ccf;stroke-width:0.264583px;stroke-linecap:butt;stroke-linejoin:miter;stroke-opacity:1"
       d="m 117.76861,105.83014 -0.0515,3.42118"
       id="path1604" />
    <path
       style="fill:none;stroke:#788ccf;stroke-width:0.264583px;stroke-linecap:butt;stroke-linejoin:miter;stroke-opacity:1"
       d="m 115.00813,109.27645 3.74171,0.009 0.0224,3.75589 -3.83048,-0.009 z"
       id="path1696" />
    <path
       style="fill:none;stroke:#788ccf;stroke-width:0.264583px;stroke-linecap:butt;stroke-linejoin:miter;stroke-opacity:1"
       d="m 115.48351,113.03201 0.017,1.32725 2.53161,0.0161 -0.0282,-1.378"
       id="path1902" />
    <path
       style="fill:none;stroke:#788ccf;stroke-width:0.264583px;stroke-linecap:butt;stroke-linejoin:miter;stroke-opacity:1"
       d="m 116.12708,114.36686 -0.39094,31.79246"
       id="path1904" />
    <path
       style="fill:none;stroke:#788ccf;stroke-width:0.264583px;stroke-linecap:butt;stroke-linejoin:miter;stroke-opacity:1"
       d="m 117.41168,114.33685 c 0.0466,0.0761 -0.38604,31.76339 -0.38604,31.76339"
       id="path2034" />
    <path
       style="fill:none;stroke:#788ccf;stroke-width:0.264583px;stroke-linecap:butt;stroke-linejoin:miter;stroke-opacity:1"
       d="m 114.94819,146.17599 2.99717,-0.026 -0.0436,2.77446"
       id="path2036" />
    <path
       style="fill:none;stroke:#788ccf;stroke-width:0.264583px;stroke-linecap:butt;stroke-linejoin:miter;stroke-opacity:1"
       d="m 114.94819,146.17599 -0.0386,2.66084"
       id="path2038" />
    <path
       style="fill:none;stroke:#788ccf;stroke-width:0.264583px;stroke-linecap:butt;stroke-linejoin:miter;stroke-opacity:1"
       d="m 114.90959,148.83683 c 0.13527,0.16945 0.2703,0.33861 0.3437,0.53382 0.0734,0.19521 0.0854,0.41646 0.0512,0.63025 -0.0342,0.21378 -0.11443,0.4202 -0.24257,0.6087 -0.12814,0.18851 -0.30422,0.35924 -0.4855,0.52229 -0.18129,0.16306 -0.3678,0.31846 -0.55432,0.47387"
       id="path2092" />
    <path
       style="fill:none;stroke:#788ccf;stroke-width:0.264583px;stroke-linecap:butt;stroke-linejoin:miter;stroke-opacity:1"
       d="m 117.90176,148.92445 c -0.13527,0.16945 -0.2703,0.33861 -0.3437,0.53382 -0.0734,0.19521 -0.0854,0.41646 -0.0512,0.63025 0.0342,0.21378 0.11443,0.4202 0.24257,0.6087 0.12814,0.18851 0.30422,0.35924 0.4855,0.52229 0.18129,0.16306 0.3678,0.31846 0.55432,0.47387"
       id="path2092-1" />
    <path
       style="fill:none;stroke:#788ccf;stroke-width:0.264583px;stroke-linecap:butt;stroke-linejoin:miter;stroke-opacity:1"
       d="m 114.02208,151.60576 c 1.58934,0.0292 3.1784,0.0584 4.76719,0.0876"
       id="path2508" />
    <path
       style="fill:none;stroke:#788ccf;stroke-width:0.264583px;stroke-linecap:butt;stroke-linejoin:miter;stroke-opacity:1"
       d="m 114.02208,151.60576 -0.0142,0.96536 4.80041,0.0832 -0.0191,-0.96104"
       id="path2738" />
    <path
       style="fill:none;stroke:#788ccf;stroke-width:0.264583px;stroke-linecap:butt;stroke-linejoin:miter;stroke-opacity:1"
       d="m 114.00788,152.57112 -0.0436,7.56306"
       id="path2868" />
    <path
       style="fill:none;stroke:#788ccf;stroke-width:0.264583px;stroke-linecap:butt;stroke-linejoin:miter;stroke-opacity:1"
       d="m 118.80829,152.65432 -0.24791,7.5322"
       id="path2870" />
    <path
       style="fill:none;stroke:#788ccf;stroke-width:0.264583px;stroke-linecap:butt;stroke-linejoin:miter;stroke-opacity:1"
       d="m 134.92397,134.14645 c 0.41067,-0.16624 0.82118,-0.33241 1.22757,-0.41547 0.40639,-0.0831 0.80849,-0.0831 1.12339,-0.0362 0.31489,0.0469 0.54254,0.14042 0.68447,0.29215 0.14193,0.15173 0.1984,0.36144 0.26157,0.65097 0.0632,0.28953 0.13305,0.65885 0.1626,1.03037 0.0296,0.37152 0.0188,0.74525 0.0392,1.03353 0.0203,0.28828 0.0717,0.49103 0.25068,0.65607 0.179,0.16504 0.4854,0.29253 0.89634,0.46829 0.41095,0.17575 0.92639,0.39975 1.3566,0.57318 0.43021,0.17343 0.77515,0.29631 1.04416,0.48859 0.26901,0.19228 0.46217,0.45376 0.53031,0.88399 0.0681,0.43024 0.0115,1.02926 -0.0222,1.65076 -0.0337,0.6215 -0.0445,1.26541 -0.0929,1.84352 -0.0483,0.5781 -0.13421,1.0904 -0.12468,1.48924 0.01,0.39884 0.11427,0.68408 0.34945,0.94776 0.23519,0.26369 0.60061,0.5059 0.92225,0.72733 0.32163,0.22142 0.59948,0.42205 0.77602,0.74862 0.17655,0.32657 0.25203,0.77901 0.29476,1.2091 0.0427,0.43009 0.0527,0.83785 0.15405,1.10132 0.10133,0.26346 0.29368,0.3827 0.41921,0.51978 0.12553,0.13707 0.18442,0.2918 0.24319,0.44624"
       id="path3641" />
    <path
       style="fill:none;stroke:#788ccf;stroke-width:0.264583px;stroke-linecap:butt;stroke-linejoin:miter;stroke-opacity:1"
       d="m 132.3349,132.37635 c 0.032,-0.75055 0.064,-1.50136 0.08,-2.02983 0.016,-0.52847 0.016,-0.8346 0.0394,-1.07114 0.0234,-0.23654 0.0703,-0.40333 0.19261,-0.53654 0.12231,-0.13321 0.31983,-0.23254 0.55504,-0.27841 0.23521,-0.0459 0.50789,-0.0384 0.69587,0.097 0.18799,0.1354 0.2914,0.39833 0.34908,0.76705 0.0577,0.36872 0.0697,0.84323 0.0758,1.27894 0.006,0.43571 0.006,0.8326 0.0111,1.08659 0.005,0.25399 0.0153,0.36506 0.0217,0.48243 0.006,0.11737 0.009,0.24106 0.0117,0.36448"
       id="path3645" />
    <path
       style="fill:none;stroke:#788ccf;stroke-width:0.264583px;stroke-linecap:butt;stroke-linejoin:miter;stroke-opacity:1"
       d="m 131.6919,134.13786 -0.0466,-1.61477 3.35303,0.03 -0.0743,1.59338 z"
       id="path4233" />
    <path
       style="fill:none;stroke:#788ccf;stroke-width:0.264583px;stroke-linecap:butt;stroke-linejoin:miter;stroke-opacity:1"
       d="m 131.6919,134.13786 -0.8974,0.0367 0.0188,1.89497 4.73003,0.0657 0.033,-1.93698 -0.65236,-0.0518"
       id="path4235" />
    <path
       style="fill:none;stroke:#788ccf;stroke-width:0.264583px;stroke-linecap:butt;stroke-linejoin:miter;stroke-opacity:1"
       d="m 131.85113,136.07034 -0.2791,19.56718"
       id="path4441" />
    <path
       style="fill:none;stroke:#788ccf;stroke-width:0.264583px;stroke-linecap:butt;stroke-linejoin:miter;stroke-opacity:1"
       d="m 134.39668,136.22727 0.0679,19.29464"
       id="path4443" />
    <path
       style="fill:none;stroke:#788ccf;stroke-width:0.264583px;stroke-linecap:butt;stroke-linejoin:miter;stroke-opacity:1"
       d="m 132.93097,138.37136 c 0.0744,0.15915 -0.19005,17.2062 -0.19005,17.2062"
       id="path4445" />
    <path
       style="fill:none;stroke:#788ccf;stroke-width:0.264583px;stroke-linecap:butt;stroke-linejoin:miter;stroke-opacity:1"
       d="m 132.82376,157.25048 -0.13163,3.10885"
       id="path4447" />
    <path
       style="fill:none;stroke:#788ccf;stroke-width:0.264583px;stroke-linecap:butt;stroke-linejoin:miter;stroke-opacity:1"
       d="m 132.73765,162.16865 -0.0955,2.94027"
       id="path4449" />
    <path
       style="fill:none;stroke:#788ccf;stroke-width:0.264583px;stroke-linecap:butt;stroke-linejoin:miter;stroke-opacity:1"
       d="m 131.46396,162.15957 -0.0155,3.96629 c 0,0 0.89926,0.82787 2.7698,0.22677 l 0.25055,-4.09702"
       id="path4451" />
    <path
       style="fill:none;stroke:#788ccf;stroke-width:0.264583px;stroke-linecap:butt;stroke-linejoin:miter;stroke-opacity:1"
       d="m 129.98031,162.13273 c 0.40458,0 5.81904,0.0129 5.81904,0.0129"
       id="path4453" />
    <path
       style="fill:none;stroke:#788ccf;stroke-width:0.264583px;stroke-linecap:butt;stroke-linejoin:miter;stroke-opacity:1"
       d="m 132.18346,166.40957 0.0458,6.83447 h 1.12444 l 0.0162,-6.70593"
       id="path4455" />
    <path
       style="fill:none;stroke:#788ccf;stroke-width:0.264583px;stroke-linecap:butt;stroke-linejoin:miter;stroke-opacity:1"
       d="m 131.44845,166.12586 1.1937,-1.01694 1.5761,1.24371"
       id="path4457" />
    <path
       style="fill:none;stroke:#788ccf;stroke-width:0.264583px;stroke-linecap:butt;stroke-linejoin:miter;stroke-opacity:1"
       d="m 129.98031,162.13273 0.0743,-1.80233 4.48361,0.11326 0.0634,-3.28619 -4.09768,-0.0724 -0.093,-1.51343 5.63286,0.0881 -0.24446,6.48592"
       id="path4625" />
    <path
       style="fill:none;stroke:#788ccf;stroke-width:0.264583px;stroke-linecap:butt;stroke-linejoin:miter;stroke-opacity:1"
       d="m 131.49988,157.10619 c -0.0608,0.16792 0.0565,3.25528 0.0565,3.25528"
       id="path4627" />
    <path
       style="fill:none;stroke:#788ccf;stroke-width:0.264583px;stroke-linecap:butt;stroke-linejoin:miter;stroke-opacity:1"
       d="m 131.38263,159.65302 -0.93864,0.0944 -0.12453,-1.80729 1.11805,-0.0258"
       id="path4947" />
    <ellipse
       style="fill:none;stroke:#788ccf;stroke-width:0.799999;paint-order:markers stroke fill"
       id="path5096"
       cx="137.24905"
       cy="158.84328"
       rx="0.75118983"
       ry="0.82925165" />
    <path
       style="fill:none;stroke:#788ccf;stroke-width:0.264583px;stroke-linecap:butt;stroke-linejoin:miter;stroke-opacity:1"
       d="m 137.22698,158.05067 c 0.0643,-0.0739 0.55781,-1.56648 0.55781,-1.56648"
       id="path5131" />
    <path
       style="fill:none;stroke:#788ccf;stroke-width:0.264583px;stroke-linecap:butt;stroke-linejoin:miter;stroke-opacity:1"
       d="m 137.59632,158.07434 0.58767,-1.20449 -0.3992,-0.38566"
       id="path5133" />
    <path
       style="fill:none;stroke:#788ccf;stroke-width:0.264583px;stroke-linecap:butt;stroke-linejoin:miter;stroke-opacity:1"
       d="m 136.79391,159.71445 c -0.0161,0.13535 -0.73298,1.07504 -0.73298,1.07504 l 0.4654,0.50589 0.62198,-1.36284 -0.36039,-0.0794"
       id="path5135" />
    <path
       style="fill:none;stroke:#788ccf;stroke-width:0.264583px;stroke-linecap:butt;stroke-linejoin:miter;stroke-opacity:1"
       d="m 135.86311,157.2656 c 0.095,0.0861 3.41776,0.13249 3.41776,0.13249 l 0.0979,3.01847 -3.57213,-0.0228"
       id="path5137" />
    <path
       style="fill:none;stroke:#788ccf;stroke-width:0.264583px;stroke-linecap:butt;stroke-linejoin:miter;stroke-opacity:1"
       d="m 139.28969,157.89987 10.96562,0.0955"
       id="path5139" />
    <path
       style="fill:none;stroke:#788ccf;stroke-width:0.264583px;stroke-linecap:butt;stroke-linejoin:miter;stroke-opacity:1"
       d="m 139.28156,159.96307 10.99753,0.0317"
       id="path5141" />
    <path
       style="fill:none;stroke:#788ccf;stroke-width:0.264583px;stroke-linecap:butt;stroke-linejoin:miter;stroke-opacity:1"
       d="m 125.63495,151.16417 c 0.0606,-0.33384 0.18197,-1.0017 0.33844,-1.60445 0.15648,-0.60275 0.3481,-1.14028 0.56548,-1.56115 0.21737,-0.42087 0.46045,-0.72493 0.7092,-0.88657 0.24875,-0.16165 0.50289,-0.18081 0.71633,-0.0368 0.21343,0.14405 0.38622,0.45098 0.44196,0.77381 0.0557,0.32284 -0.005,0.66168 -0.1074,1.18433 -0.10206,0.52266 -0.24506,1.22912 -0.43672,1.76834 -0.19167,0.53922 -0.43198,0.91131 -0.53897,1.08797 -0.107,0.17667 -0.0808,0.158 0.0982,0.23428 0.17899,0.0763 0.51044,0.24729 0.68886,0.48888 0.17842,0.24159 0.20409,0.55363 0.12522,0.67858 -0.0789,0.12495 -0.26254,0.063 -0.55065,-0.0418 -0.2881,-0.10484 -0.68061,-0.25255 -1.21333,-0.42497 -0.53273,-0.17242 -1.20562,-0.3695 -1.66787,-0.51006 -0.46226,-0.14056 -0.71387,-0.22462 -0.79553,-0.35343 -0.0817,-0.1288 0.007,-0.30237 0.29655,-0.38704 0.28958,-0.0847 0.77971,-0.0803 1.02466,-0.0782 0.24494,0.002 0.24491,0.002 0.30555,-0.33174 z"
       id="path5309" />
    <path
       style="fill:none;stroke:#788ccf;stroke-width:0.264583px;stroke-linecap:butt;stroke-linejoin:miter;stroke-opacity:1"
       d="m 127.29465,151.99134 c -0.60361,-0.1619 -1.20755,-0.32388 -1.81179,-0.48595"
       id="path5313" />
    <path
       style="fill:none;stroke:#788ccf;stroke-width:0.264583px;stroke-linecap:butt;stroke-linejoin:miter;stroke-opacity:1"
       d="m 123.48314,152.13498 c 0.16669,0.0664 5.06314,1.50819 5.06314,1.50819 l -0.59249,0.58716 -4.29936,-1.31405 z"
       id="path5445" />
    <path
       style="fill:none;stroke:#788ccf;stroke-width:0.264583px;stroke-linecap:butt;stroke-linejoin:miter;stroke-opacity:1"
       d="m 123.65443,152.91628 -1.53592,6.71824"
       id="path5447" />
    <path
       style="fill:none;stroke:#788ccf;stroke-width:0.264583px;stroke-linecap:butt;stroke-linejoin:miter;stroke-opacity:1"
       d="m 127.95379,154.23033 -2.28246,6.37311 c -0.13698,-0.1454 -3.55282,-0.96892 -3.55282,-0.96892"
       id="path5449" />
    <path
       style="fill:none;stroke:#788ccf;stroke-width:0.264583px;stroke-linecap:butt;stroke-linejoin:miter;stroke-opacity:1"
       d="m 125.67133,160.60344 0.0245,5.38936"
       id="path5451" />
    <path
       style="fill:none;stroke:#788ccf;stroke-width:0.264583px;stroke-linecap:butt;stroke-linejoin:miter;stroke-opacity:1"
       d="m 118.56038,160.18652 c 0.11704,0.2487 0.23392,0.49709 0.40875,0.69999 0.17483,0.20289 0.40744,0.3604 0.66324,0.43714 0.2558,0.0767 0.53481,0.0729 0.77582,0.0328 0.24101,-0.0401 0.44414,-0.11652 0.64887,-0.2808 0.20473,-0.16429 0.41122,-0.41654 0.58841,-0.67135 0.17719,-0.25482 0.32509,-0.51226 0.47304,-0.76977"
       id="path5453" />
    <path
       style="fill:none;stroke:#788ccf;stroke-width:0.264583px;stroke-linecap:butt;stroke-linejoin:miter;stroke-opacity:1"
       d="m 125.69583,165.9928 c 0.28689,0.55277 0.57362,1.10522 0.8128,1.54673 0.23918,0.44151 0.43079,0.77207 0.61192,1.19388 0.18114,0.4218 0.35187,0.93482 0.45992,1.44544 0.10805,0.51062 0.1535,1.01884 0.17999,1.4402 0.0265,0.42135 0.0341,0.75582 0.0332,1.04051 -8.7e-4,0.2847 -0.0102,0.51962 -0.0195,0.7543"
       id="path5457" />
    <path
       style="fill:none;stroke:#788ccf;stroke-width:0.264583px;stroke-linecap:butt;stroke-linejoin:miter;stroke-opacity:1"
       d="m 110.4847,159.83151 c 0.15516,0.2372 0.31012,0.47409 0.46421,0.69086 0.15409,0.21677 0.30729,0.41344 0.44904,0.5573 0.14176,0.14386 0.27201,0.235 0.46905,0.28611 0.19705,0.0511 0.4609,0.0624 0.72364,0.0102 0.26273,-0.0522 0.52446,-0.16788 0.70849,-0.31921 0.18404,-0.15133 0.29054,-0.33846 0.38847,-0.49819 0.0979,-0.15973 0.18728,-0.29206 0.27668,-0.42443"
       id="path5461" />
    <path
       style="fill:none;stroke:#788ccf;stroke-width:0.264583px;stroke-linecap:butt;stroke-linejoin:miter;stroke-opacity:1"
       d="m 106.44738,165.77493 c -0.0885,0.27633 -0.17697,0.5525 -0.31932,0.87427 -0.14234,0.32177 -0.33856,0.68917 -0.50718,0.99966 -0.16862,0.31048 -0.30961,0.56399 -0.43928,0.8796 -0.12967,0.3156 -0.24801,0.69317 -0.34794,1.09476 -0.0999,0.40159 -0.18147,0.8271 -0.23699,1.18366 -0.0555,0.35655 -0.0851,0.64409 -0.0922,0.98775 -0.007,0.34366 0.008,0.74339 0.0232,1.14285"
       id="path5465" />
    <path
       style="fill:none;stroke:#788ccf;stroke-width:0.264583px;stroke-linecap:butt;stroke-linejoin:miter;stroke-opacity:1"
       d="m 106.44738,165.77493 0.1742,-4.69339 3.86312,-1.25003 -1.62103,-7.46025 c -1.31023,0.78941 -2.82672,1.22327 -4.76289,1.06018 l 2.54047,7.62049"
       id="path5787" />
    <path
       style="fill:none;stroke:#788ccf;stroke-width:0.264583px;stroke-linecap:butt;stroke-linejoin:miter;stroke-opacity:1"
       d="m 105.647,153.5839 -3.56427,-13.65726"
       id="path5955" />
    <path
       style="fill:none;stroke:#788ccf;stroke-width:0.264583px;stroke-linecap:butt;stroke-linejoin:miter;stroke-opacity:1"
       d="M 108.00433,152.80007 104.14268,139.4244"
       id="path5957" />
    <path
       style="fill:none;stroke:#788ccf;stroke-width:0.264583px;stroke-linecap:butt;stroke-linejoin:miter;stroke-opacity:1"
       d="m 85.652942,135.13749 4.564171,17.64324"
       id="path5959" />
    <path
       style="fill:none;stroke:#788ccf;stroke-width:0.264583px;stroke-linecap:butt;stroke-linejoin:miter;stroke-opacity:1"
       d="m 90.373506,133.6954 4.873865,17.53463"
       id="path5961" />
    <path
       style="fill:none;stroke:#788ccf;stroke-width:0.264583px;stroke-linecap:butt;stroke-linejoin:miter;stroke-opacity:1"
       d="m 85.65294,135.13749 4.720566,-1.44209"
       id="path5963" />
    <path
       style="fill:none;stroke:#788ccf;stroke-width:0.264583px;stroke-linecap:butt;stroke-linejoin:miter;stroke-opacity:1"
       d="m 83.660582,127.69993 4.810186,-1.29853 1.330309,7.3787"
       id="path5965" />
    <path
       style="fill:none;stroke:#788ccf;stroke-width:0.264583px;stroke-linecap:butt;stroke-linejoin:miter;stroke-opacity:1"
       d="m 83.660582,127.69993 2.491685,7.27357"
       id="path5967" />
    <path
       style="fill:none;stroke:#788ccf;stroke-width:0.264583px;stroke-linecap:butt;stroke-linejoin:miter;stroke-opacity:1"
       d="m 90.990974,135.51359 c 3.464695,0.30599 6.929106,0.61196 8.772287,0.83579 1.843179,0.22383 2.065109,0.36534 2.524829,0.86421 0.45972,0.49888 1.15726,1.35498 1.85459,2.21081"
       id="path5969" />
    <path
       style="fill:none;stroke:#788ccf;stroke-width:0.264583px;stroke-linecap:butt;stroke-linejoin:miter;stroke-opacity:1"
       d="m 102.08273,139.92664 c -0.35515,-0.20426 -0.71061,-0.40869 -0.98816,-0.56702 -0.27755,-0.15833 -0.47718,-0.27055 -2.042582,-0.42205 -1.5654,-0.1515 -4.496409,-0.34211 -7.42776,-0.53275"
       id="path5973" />
    <path
       style="fill:none;stroke:#788ccf;stroke-width:0.264583px;stroke-linecap:butt;stroke-linejoin:miter;stroke-opacity:1"
       d="m 90.217111,152.78073 c 0.367041,1.06789 0.733964,2.13544 1.237286,3.1715 0.503321,1.03606 1.142903,2.04053 1.682325,2.74848 0.539423,0.70794 0.978572,1.11936 1.379729,1.13603 0.401157,0.0167 0.764574,-0.36118 1.00228,-1.16124 0.237705,-0.80006 0.349707,-2.02253 0.283561,-3.33379 -0.06615,-1.31126 -0.310505,-2.7113 -0.554923,-4.11168"
       id="path5977" />
    <path
       style="fill:none;stroke:#788ccf;stroke-width:0.264583px;stroke-linecap:butt;stroke-linejoin:miter;stroke-opacity:1"
       d="m 87.289782,141.70397 3.66722,-0.89941"
       id="path6109" />
    <path
       style="fill:none;stroke:#788ccf;stroke-width:0.264583px;stroke-linecap:butt;stroke-linejoin:miter;stroke-opacity:1"
       d="m 87.912233,143.64893 3.473439,-0.90187"
       id="path6111" />
    <path
       style="fill:none;stroke:#788ccf;stroke-width:0.264583px;stroke-linecap:butt;stroke-linejoin:miter;stroke-opacity:1"
       d="m 88.414727,145.48193 3.419543,-0.8919"
       id="path6115" />
    <path
       style="fill:none;stroke:#788ccf;stroke-width:0.264583px;stroke-linecap:butt;stroke-linejoin:miter;stroke-opacity:1"
       d="m 88.084873,144.55884 1.918187,-0.37336"
       id="path6117" />
    <path
       style="fill:none;stroke:#788ccf;stroke-width:0.264583px;stroke-linecap:butt;stroke-linejoin:miter;stroke-opacity:1"
       d="m 88.611796,146.55564 2.024457,-0.45906"
       id="path6121" />
    <path
       style="fill:none;stroke:#788ccf;stroke-width:0.264583px;stroke-linecap:butt;stroke-linejoin:miter;stroke-opacity:1"
       d="m 88.895094,147.37377 3.776247,-0.76515"
       id="path6123" />
    <path
       style="fill:none;stroke:#788ccf;stroke-width:0.264583px;stroke-linecap:butt;stroke-linejoin:miter;stroke-opacity:1"
       d="m 89.128723,148.24633 1.930969,-0.25747"
       id="path6125" />
    <path
       style="fill:none;stroke:#788ccf;stroke-width:0.264583px;stroke-linecap:butt;stroke-linejoin:miter;stroke-opacity:1"
       d="m 89.39809,149.17565 c 0.10242,0 3.55078,-0.75159 3.55078,-0.75159"
       id="path6127" />
    <path
       style="fill:none;stroke:#788ccf;stroke-width:0.264583px;stroke-linecap:butt;stroke-linejoin:miter;stroke-opacity:1"
       d="m 89.506207,150.33385 2.246566,-0.49256"
       id="path6129" />
    <path
       style="fill:none;stroke:#788ccf;stroke-width:0.264583px;stroke-linecap:butt;stroke-linejoin:miter;stroke-opacity:1"
       d="M 89.845609,151.19028 93.399982,150.293"
       id="path6131" />
    <path
       style="fill:none;stroke:#788ccf;stroke-width:0.264583px;stroke-linecap:butt;stroke-linejoin:miter;stroke-opacity:1"
       d="m 90.015813,152.25297 2.079241,-0.56845"
       id="path6133" />
    <path
       style="fill:none;stroke:#788ccf;stroke-width:0.264583px;stroke-linecap:butt;stroke-linejoin:miter;stroke-opacity:1"
       d="m 90.340549,153.1389 3.6746,-0.96355"
       id="path6135" />
    <path
       style="fill:none;stroke:#788ccf;stroke-width:0.264583px;stroke-linecap:butt;stroke-linejoin:miter;stroke-opacity:1"
       d="m 90.774096,154.45503 1.807249,-0.53978"
       id="path6137" />
    <path
       style="fill:none;stroke:#788ccf;stroke-width:0.264583px;stroke-linecap:butt;stroke-linejoin:miter;stroke-opacity:1"
       d="m 91.442044,155.93771 3.813366,-1.1381"
       id="path6139" />
    <path
       style="fill:none;stroke:#788ccf;stroke-width:0.264583px;stroke-linecap:butt;stroke-linejoin:miter;stroke-opacity:1"
       d="m 92.637691,157.80667 c 0.05017,-0.0114 1.404236,-0.43352 1.404236,-0.43352"
       id="path6141" />
    <path
       style="fill:none;stroke:#788ccf;stroke-width:0.264583px;stroke-linecap:butt;stroke-linejoin:miter;stroke-opacity:1"
       d="m 87.62085,142.57186 1.949042,-0.33623"
       id="path6271" />
    <path
       style="fill:none;stroke:#788ccf;stroke-width:0.264583px;stroke-linecap:butt;stroke-linejoin:miter;stroke-opacity:1"
       d="m 113.98623,159.14835 4.58439,-0.0403"
       id="path6273" />
    <path
       style="fill:none;stroke:#788ccf;stroke-width:0.264583px;stroke-linecap:butt;stroke-linejoin:miter;stroke-opacity:1"
       d="m 113.96428,160.13418 4.5961,0.0523"
       id="path6275" />
    <path
       style="fill:none;stroke:#788ccf;stroke-width:0.264583px;stroke-linecap:butt;stroke-linejoin:miter;stroke-opacity:1"
       d="m 115.42882,160.21873 -0.052,12.91886"
       id="path6277" />
    <path
       style="fill:none;stroke:#788ccf;stroke-width:0.264583px;stroke-linecap:butt;stroke-linejoin:miter;stroke-opacity:1"
       d="m 116.66337,160.04697 -0.0516,13.06864"
       id="path6279" />
    <path
       style="fill:none;stroke:#788ccf;stroke-width:0.264583px;stroke-linecap:butt;stroke-linejoin:miter;stroke-opacity:1"
       d="m 106.07036,168.01073 19.79064,0.0684"
       id="path6281" />
    <path
       style="fill:none;stroke:#788ccf;stroke-width:0.264583px;stroke-linecap:butt;stroke-linejoin:miter;stroke-opacity:1"
       d="m 98.610559,173.01288 c 0.287742,0.0643 37.072201,0.38791 37.072201,0.38791"
       id="path6283" />
    <path
       style="fill:none;stroke:#788ccf;stroke-width:0.264583px;stroke-linecap:butt;stroke-linejoin:miter;stroke-opacity:1"
       d="m 135.68276,173.40079 c 0.47163,0.13275 0.94294,0.26541 1.25519,0.49874 0.31224,0.23332 0.46558,0.56707 0.56846,0.96538 0.10287,0.3983 0.15539,0.86115 0.10075,1.26375 -0.0546,0.40261 -0.21632,0.74511 -0.37739,1.04362 -0.16108,0.29851 -0.32154,0.55306 -1.56707,2.55264 -1.24553,1.99957 -3.57602,5.744 -4.88035,7.76502 -1.30433,2.02102 -1.58249,2.31861 -1.93001,2.59285 -0.34752,0.27424 -0.76446,0.52516 -1.13939,0.68803 -0.37493,0.16288 -0.70791,0.23767 -4.23467,0.23159 -3.52676,-0.006 -10.24707,-0.0931 -13.73974,-0.25177 -3.49267,-0.1587 -3.75757,-0.38935 -3.9927,-0.70817 -0.23512,-0.31883 -0.44034,-0.7259 -1.85128,-3.10997 -1.41094,-2.38407 -4.027513,-6.74496 -5.362434,-9.08288 -1.334921,-2.33791 -1.387999,-2.65274 -1.408503,-2.92519 -0.0205,-0.27246 -0.0084,-0.50245 0.08148,-0.71511 0.08985,-0.21267 0.257412,-0.40778 0.42011,-0.55404 0.162699,-0.14626 0.320405,-0.24358 0.483816,-0.34251 0.163412,-0.0989 0.332508,-0.19943 0.501524,-0.29989"
       id="path6398" />
    <path
       style="fill:none;stroke:#788ccf;stroke-width:0.264583px;stroke-linecap:butt;stroke-linejoin:miter;stroke-opacity:1"
       d="m 96.956418,191.01169 c 0,0.0149 0,0.0445 9.34e-4,0.1728 9.35e-4,0.12834 0.0028,0.35535 0.0011,0.62227 -0.0018,0.26692 -0.0071,0.57372 -0.0044,0.8752 0.0027,0.30149 0.01351,0.59762 0.011,0.86029 -0.0025,0.26267 -0.01829,0.49188 0.04197,0.61656 0.06026,0.12468 0.196223,0.14501 5.624683,0.19638 5.42845,0.0514 16.14898,0.13381 21.59101,0.16356 5.44203,0.0298 5.60539,0.007 5.6767,-0.3647 0.0713,-0.37155 0.0508,-1.09204 0.0378,-1.58758 -0.013,-0.49554 -0.0185,-0.76612 -0.0257,-0.92951 -0.007,-0.16339 -0.016,-0.21955 -0.0516,-0.26336 -0.0357,-0.0438 -0.0983,-0.075 -5.50131,-0.15929 -5.40303,-0.0843 -16.14585,-0.22132 -21.55941,-0.29889 -5.413554,-0.0776 -5.497639,-0.0957 -5.583267,-0.0723 -0.08563,0.0234 -0.172545,0.0885 -0.21602,0.12102 -0.04348,0.0326 -0.04341,0.0326 -0.04341,0.0475 z"
       id="path6402" />
    <path
       style="fill:none;stroke:#788ccf;stroke-width:0.264583px;stroke-linecap:butt;stroke-linejoin:miter;stroke-opacity:1"
       d="m 102.18934,194.40824 0.0429,2.30309"
       id="path6406" />
    <path
       style="fill:none;stroke:#788ccf;stroke-width:0.264583px;stroke-linecap:butt;stroke-linejoin:miter;stroke-opacity:1"
       d="m 124.29384,194.50838 0.0219,2.62005"
       id="path6408" />
    <path
       style="fill:none;stroke:#788ccf;stroke-width:0.264583px;stroke-linecap:butt;stroke-linejoin:miter;stroke-opacity:1"
       d="m 96.760598,196.6432 -1.110573,12.26628"
       id="path6410" />
    <path
       style="fill:none;stroke:#788ccf;stroke-width:0.264583px;stroke-linecap:butt;stroke-linejoin:miter;stroke-opacity:1"
       d="m 95.650025,208.90948 50.278835,0.44401 -0.54935,-19.03312 -13.03614,-0.10636"
       id="path6412" />
    <path
       style="fill:none;stroke:#788ccf;stroke-width:0.264583px;stroke-linecap:butt;stroke-linejoin:miter;stroke-opacity:1"
       d="m 132.34337,190.21401 c -0.0642,1.80923 -0.12831,3.61821 -0.16229,4.54223 -0.034,0.92403 -0.0378,0.96305 -0.0637,1.09217 -0.0259,0.12912 -0.0738,0.34826 -0.16736,0.51914 -0.0936,0.17088 -0.23276,0.29368 -0.45038,0.41546 -0.21763,0.12178 -0.51378,0.24257 -6.31675,0.21912 -5.80297,-0.0234 -17.11243,-0.19119 -28.422385,-0.35893"
       id="path6527" />
    <ellipse
       style="fill:none;stroke:#788ccf;stroke-width:0.4;stroke-miterlimit:4;stroke-dasharray:none;paint-order:markers stroke fill"
       id="path6739"
       cx="137.95761"
       cy="202.45923"
       rx="2.9439931"
       ry="2.7966573" />
    <ellipse
       style="fill:none;stroke:#788ccf;stroke-width:0.4;stroke-miterlimit:4;stroke-dasharray:none;paint-order:markers stroke fill"
       id="path6741"
       cx="137.82297"
       cy="202.6261"
       rx="4.8489809"
       ry="4.2559462" />
    <ellipse
       style="fill:none;stroke:#788ccf;stroke-width:0.4;stroke-miterlimit:4;stroke-dasharray:none;paint-order:markers stroke fill"
       id="path6743"
       cx="129.44655"
       cy="202.77193"
       rx="2.4399629"
       ry="2.3720009" />
    <path
       style="fill:none;stroke:#788ccf;stroke-width:0.264583px;stroke-linecap:butt;stroke-linejoin:miter;stroke-opacity:1"
       d="m 97.76023,208.83518 v 2.01566 l 46.38713,0.20886 0.0292,-1.74224"
       id="path6858" />
    <path
       style="fill:none;stroke:#788ccf;stroke-width:0.264583px;stroke-linecap:butt;stroke-linejoin:miter;stroke-opacity:1"
       d="m 84.15449,125.73593 0.0447,1.77161"
       id="path6860" />
    <path
       style="fill:none;stroke:#788ccf;stroke-width:0.264583px;stroke-linecap:butt;stroke-linejoin:miter;stroke-opacity:1"
       d="m 87.280334,125.01993 c 0,0.21732 0.608877,1.41841 0.608877,1.41841"
       id="path6862" />
    <path
       style="fill:none;stroke:#788ccf;stroke-width:0.264583px;stroke-linecap:butt;stroke-linejoin:miter;stroke-opacity:1"
       d="m 82.505846,124.80304 c 0.06144,0.17875 0.184221,0.53592 0.293717,0.79252 0.109496,0.25659 0.205623,0.4126 0.429224,0.4191 0.223602,0.006 0.574715,-0.13614 1.271289,-0.32679 0.696575,-0.19066 1.738503,-0.42932 2.405628,-0.6821 0.667124,-0.25278 0.959593,-0.51971 1.071379,-0.896 0.111786,-0.3763 0.04286,-0.86226 -0.955747,-4.68041 -0.998604,-3.81816 -2.926846,-10.96823 -3.970194,-14.60473 -1.043349,-3.63651 -1.201968,-3.75919 -1.416759,-3.84847 -0.214791,-0.0893 -0.485771,-0.14498 -1.229102,-0.0452 -0.74333,0.0998 -1.958865,0.3552 -2.660632,0.55237 -0.701767,0.19717 -0.889584,0.33609 -1.050767,0.49511 -0.161182,0.15902 -0.295645,0.33805 -0.299684,0.61992 -0.004,0.28188 0.122204,0.6663 0.191956,0.89293 0.06975,0.22663 0.08304,0.29541 -0.115059,0.3874 -0.198102,0.092 -0.607705,0.20752 -1.033722,0.35015 -0.426017,0.14262 -0.868383,0.31234 -1.331687,0.4696 -0.463305,0.15726 -0.94755,0.30205 -1.237894,0.38517 -0.290345,0.0831 -0.386831,0.10456 -0.413452,0.22145 -0.02662,0.11689 0.01672,0.3289 0.06819,0.49961 0.05147,0.17072 0.110975,0.30011 0.480882,0.27781 0.369907,-0.0223 1.050148,-0.19596 1.754451,-0.35225 0.704303,-0.15629 1.432603,-0.29521 1.834598,-0.35123 0.401996,-0.056 0.477558,-0.0293 0.531416,0.13926 0.05386,0.16854 0.08628,0.4787 0.859391,3.31146 0.77311,2.83275 2.286788,8.18784 3.05938,10.94552 0.772593,2.75768 0.804095,2.91784 0.810045,3.05799 0.0059,0.14015 -0.01356,0.26037 -0.115033,0.35803 -0.101473,0.0977 -0.285087,0.17302 -0.639731,0.31502 -0.354644,0.142 -0.880307,0.35063 -1.364785,0.49518 -0.484478,0.14455 -0.927826,0.225 -1.232549,0.31584 -0.304723,0.0908 -0.470685,0.19207 -0.549702,0.36426 -0.07902,0.1722 -0.07103,0.41503 0.02235,0.56101 0.09337,0.14598 0.271809,0.19528 0.533926,0.18509 0.262118,-0.0102 0.608019,-0.0798 1.134121,-0.19959 0.526102,-0.11983 1.232389,-0.28992 1.729661,-0.39894 0.497273,-0.10902 0.78547,-0.15697 0.929472,-0.18093 0.144001,-0.024 0.143981,-0.0239 0.205426,0.15482 z"
       id="path6864" />
    <path
       style="fill:none;stroke:#788ccf;stroke-width:0.264583px;stroke-linecap:butt;stroke-linejoin:miter;stroke-opacity:1"
       d="m 75.877951,98.167371 c -0.08062,0.141162 -0.161197,0.282235 -0.145168,0.440072 0.01603,0.157837 0.128411,0.332211 0.299467,0.508702 0.171055,0.176492 0.400682,0.355173 0.575835,0.527681 0.175153,0.172509 0.295896,0.338762 0.359283,0.542224 0.06339,0.20347 0.06962,0.44415 0.06507,0.65233 -0.0046,0.20818 -0.01987,0.38388 0.03152,0.53187 0.05139,0.148 0.169196,0.26827 0.278916,0.41677 0.10972,0.14851 0.211431,0.32519 0.350494,0.43153 0.139063,0.10635 0.315356,0.14261 0.453419,0.18667 0.138063,0.0441 0.237923,0.0958 0.271064,0.19417 0.03314,0.0983 -5.9e-5,0.24318 -0.06469,0.36048 -0.06463,0.11729 -0.160737,0.20723 -0.216391,0.35151 -0.05565,0.14428 -0.07082,0.34264 -0.03951,0.65189 0.03131,0.30925 0.109015,0.7293 0.214113,1.10205 0.105098,0.37275 0.2375,0.69815 0.372115,1.01682 0.134616,0.31867 0.271421,0.63058 0.414615,0.86355 0.143193,0.23297 0.29265,0.38703 0.445269,0.52688 0.152619,0.13985 0.308373,0.26553 0.401075,0.37728 0.0927,0.11176 0.122561,0.20955 0.09548,0.37899 -0.02708,0.16944 -0.110927,0.41071 -0.175592,0.66412 -0.06467,0.25341 -0.110162,0.51889 -0.119809,0.75879 -0.0096,0.2399 0.01648,0.45413 0.06667,0.73092 0.05019,0.2768 0.124391,0.61612 0.213502,0.8989 0.08911,0.28278 0.193038,0.50897 0.361038,0.76645 0.168,0.25747 0.39997,0.54623 0.614745,0.80003 0.214776,0.2538 0.412325,0.47263 0.475176,0.70402 0.06285,0.2314 -0.0087,0.47544 -0.05993,0.68009 -0.05124,0.20464 -0.08218,0.36985 -0.103336,0.57492 -0.02116,0.20506 -0.03256,0.44993 -0.0049,0.72026 0.02763,0.27032 0.09421,0.56603 0.180351,0.86521 0.08614,0.29918 0.191796,0.60179 0.316415,0.87824 0.12462,0.27644 0.268128,0.5267 0.451372,0.78978 0.183245,0.26309 0.406159,0.53899 0.517499,0.6768 0.111339,0.13781 0.478575,0.50532 0.435353,0.62487 -0.04322,0.11956 -0.12961,0.35851 -0.214618,0.54101 -0.08501,0.1825 -0.168644,0.30863 -0.208544,0.49336 -0.0399,0.18472 -0.03611,0.42784 6.47e-4,0.7448 0.03675,0.31695 0.106412,0.70767 0.179249,1.00502 0.07284,0.29734 0.14877,0.50123 0.256166,0.743 0.107397,0.24176 0.246201,0.52136 0.449767,0.78497 0.203566,0.26362 0.471755,0.51128 0.620506,0.70859 0.148752,0.19731 0.178265,0.3442 0.115778,0.47293 -0.06249,0.12872 -0.216959,0.23961 -0.345615,0.33082 -0.128657,0.0912 -0.231486,0.16273 -0.211602,0.2511 0.01988,0.0884 0.162246,0.19334 0.304307,0.29809"
       id="path6868" />
    <path
       style="fill:none;stroke:#788ccf;stroke-width:0.264583px;stroke-linecap:butt;stroke-linejoin:miter;stroke-opacity:1"
       d="m 87.280334,125.01993 c -0.02579,-0.21454 -0.05162,-0.42937 -0.143386,-0.53401 -0.09177,-0.10463 -0.249696,-0.0988 -0.399035,-0.0903 -0.149338,0.008 -0.290056,0.0194 -0.362026,-0.0725 -0.07197,-0.0919 -0.07494,-0.28702 -0.05936,-0.53374 0.01558,-0.24671 0.04972,-0.54497 0.04222,-0.89871 -0.0075,-0.35373 -0.05673,-0.76298 -0.09436,-1.08454 -0.03764,-0.32156 -0.06368,-0.55542 -0.130275,-0.77789 -0.06659,-0.22246 -0.173852,-0.43354 -0.331529,-0.6438 -0.157676,-0.21026 -0.365865,-0.41964 -0.52746,-0.582 -0.161596,-0.16237 -0.276594,-0.27772 -0.363178,-0.3824 -0.08658,-0.10468 -0.144644,-0.19868 -0.181632,-0.28528 -0.03699,-0.0866 -0.05274,-0.16568 -0.0049,-0.48379 0.04783,-0.3181 0.159355,-0.87507 0.189533,-1.28075 0.03018,-0.40567 -0.02109,-0.66012 -0.139937,-1.05278 -0.118845,-0.39267 -0.305306,-0.92352 -0.455519,-1.29283 -0.150214,-0.36932 -0.264231,-0.57708 -0.480427,-0.82091 -0.216197,-0.24384 -0.534666,-0.52366 -0.691076,-0.73846 -0.15641,-0.21479 -0.150466,-0.36456 -0.12657,-0.53033 0.0239,-0.16576 0.06578,-0.34745 0.07994,-0.76634 0.01416,-0.41888 5.61e-4,-1.075 -0.04566,-1.52793 -0.04622,-0.45293 -0.125159,-0.70267 -0.204249,-0.97662 -0.07909,-0.27394 -0.158312,-0.57207 -0.313289,-0.819 -0.154977,-0.24693 -0.385912,-0.44258 -0.563806,-0.56639 -0.177894,-0.1238 -0.302777,-0.17565 -0.394927,-0.22046 -0.09215,-0.0448 -0.151515,-0.0826 -0.130375,-0.34949 0.02114,-0.26686 0.123128,-0.76278 0.191181,-1.08282 0.06805,-0.32004 0.102176,-0.4642 0.09591,-0.74606 -0.0063,-0.28186 -0.05301,-0.70151 -0.09363,-1.01197 -0.04062,-0.31045 -0.07514,-0.51168 -0.183728,-0.80073 -0.108594,-0.28904 -0.291366,-0.6659 -0.44163,-0.94351 -0.150264,-0.27762 -0.26807,-0.45599 -0.387439,-0.59028 -0.119369,-0.13429 -0.240366,-0.22442 -0.312207,-0.3379 -0.07184,-0.11349 -0.09426,-0.25041 -0.0241,-0.38895 0.07015,-0.13854 0.232897,-0.27836 0.301838,-0.43134 0.06894,-0.15298 0.04406,-0.31941 0.01913,-0.48613"
       id="path7228" />
    <path
       style="fill:none;stroke:#788ccf;stroke-width:0.264583px;stroke-linecap:butt;stroke-linejoin:miter;stroke-opacity:1"
       d="m 80.614363,100.88896 c 0.109176,-0.23931 0.218401,-0.47872 0.126921,-0.8459 -0.09148,-0.367188 -0.383894,-0.862284 -0.424505,-1.376595 -0.04061,-0.51431 0.170829,-1.047605 0.179967,-1.318491 0.0091,-0.270887 -0.184351,-0.27923 -0.478845,-0.240619 -0.294493,0.03861 -0.689892,0.124226 -1.15649,0.211316 -0.466599,0.08709 -1.004384,0.175643 -1.513504,0.317324 -0.509121,0.141681 -0.989465,0.336499 -1.469953,0.531376"
       id="path7778" />
    <path
       style="fill:none;stroke:#788ccf;stroke-width:0.264583px;stroke-linecap:butt;stroke-linejoin:miter;stroke-opacity:1"
       d="m 74.603739,104.56344 c -0.111853,0.11815 -0.223702,0.23631 -0.279623,0.33288 -0.05592,0.0966 -0.05592,0.17121 -0.0044,0.29906 0.05148,0.12785 0.154255,0.3088 0.256858,0.48945"
       id="path8138" />
    <path
       style="fill:none;stroke:#788ccf;stroke-width:0.0919108;stroke-miterlimit:4;stroke-dasharray:none;paint-order:markers stroke fill"
       d="m 277.32404,399.84182 c -0.46905,-0.0779 -0.91913,-0.21732 -1.14364,-0.35426 -0.30886,-0.18841 -0.39325,-0.37257 -0.42832,-0.93473 l -0.0316,-0.50733 0.20573,-0.12715 c 0.11315,-0.0699 0.29222,-0.22484 0.39793,-0.34425 0.1728,-0.19518 0.38533,-0.28992 0.38474,-0.1715 -4.4e-4,0.0877 -0.26056,0.47188 -0.37284,0.5506 -0.15181,0.10645 -0.14426,0.15762 0.0689,0.46743 0.18113,0.26328 0.97474,0.85013 1.23667,0.91449 0.0823,0.0202 0.39255,-0.0847 0.83056,-0.28086 0.38453,-0.17224 0.8436,-0.36886 1.02016,-0.43693 0.18196,-0.0701 0.40013,-0.21388 0.50368,-0.33181 0.17874,-0.20357 0.18182,-0.21809 0.14331,-0.67467 -0.0425,-0.50339 -0.19579,-0.82778 -0.41968,-0.88794 -0.0675,-0.0181 -0.28691,-0.0355 -0.48753,-0.0385 l -0.36478,-0.005 0.21279,-0.082 c 0.11703,-0.0451 0.33815,-0.084 0.49138,-0.0866 0.2536,-0.004 0.29589,0.0169 0.47116,0.23499 0.10591,0.13178 0.19257,0.30295 0.19257,0.38037 0,0.0774 0.0289,0.23632 0.0642,0.35313 0.14782,0.48908 0.1347,0.55977 -0.17159,0.92427 -0.24016,0.28579 -0.40846,0.40491 -1.0173,0.72003 -0.40125,0.20768 -0.87371,0.46973 -1.0499,0.58235 -0.1762,0.11262 -0.34034,0.20156 -0.36477,0.19765 -0.0244,-0.004 -0.19172,-0.0316 -0.37176,-0.0615 z"
       id="path8209"
       transform="scale(0.26458333)" />
    <path
       style="fill:none;stroke:#788ccf;stroke-width:0.0919108;stroke-miterlimit:4;stroke-dasharray:none;paint-order:markers stroke fill"
       d="m 277.1514,399.72448 c -0.58186,-0.12914 -0.97401,-0.29188 -1.13179,-0.46967 -0.0691,-0.0779 -0.1363,-0.30004 -0.17573,-0.58105 -0.0984,-0.70091 0.017,-0.85702 0.25602,-0.34661 0.0776,0.16577 0.21227,0.36742 0.29917,0.4481 0.25615,0.23782 0.77411,0.56944 1.05983,0.67856 l 0.26568,0.10146 0.89376,-0.43039 c 0.83476,-0.40197 1.11685,-0.51045 0.97545,-0.3751 -0.0318,0.0304 -0.33134,0.20405 -0.66571,0.38588 -0.33437,0.18182 -0.75842,0.41366 -0.94232,0.51519 l -0.33438,0.1846 z"
       id="path8248"
       transform="scale(0.26458333)" />
    <path
       style="fill:none;stroke:#788ccf;stroke-width:0.0919108;stroke-miterlimit:4;stroke-dasharray:none;paint-order:markers stroke fill"
       d="m 275.36077,400.17149 -0.22358,-0.0919 0.1143,-0.22141 c 0.13833,-0.26796 0.24058,-0.86805 0.24121,-1.41561 3.4e-4,-0.3026 0.0233,-0.41264 0.0916,-0.43886 0.0755,-0.029 0.0913,0.0355 0.0915,0.37347 8.3e-4,0.99626 0.32902,1.30353 1.6439,1.53911 l 0.39794,0.0713 0.86289,-0.47938 0.86289,-0.47938 -0.3489,-0.0354 c -0.3448,-0.035 -0.34329,-0.0355 0.12858,-0.0456 l 0.47749,-0.0102 0.35845,-0.36632 c 0.19714,-0.20148 0.35844,-0.40666 0.35844,-0.45597 0,-0.0493 0.0274,-0.0896 0.0608,-0.0896 0.24845,0 -0.46262,0.92436 -0.87385,1.13597 -0.10454,0.0538 -0.45851,0.27343 -0.78661,0.48809 -0.54702,0.35789 -0.64689,0.40005 -1.20286,0.50783 -0.75067,0.14551 -1.91638,0.15268 -2.25427,0.0138 z"
       id="path8361"
       transform="scale(0.26458333)" />
    <path
       style="fill:none;stroke:#788ccf;stroke-width:0.0919108;stroke-miterlimit:4;stroke-dasharray:none;paint-order:markers stroke fill"
       d="m 277.48379,398.31438 -0.28552,-0.25823 0.0442,-0.45175 c 0.0417,-0.42619 0.0536,-0.45427 0.21136,-0.4963 0.15357,-0.0409 0.16718,-0.0305 0.16718,0.12793 0,0.27989 0.13677,0.78972 0.21185,0.78972 0.15495,0 0.47906,-0.44364 0.5792,-0.7928 0.0466,-0.16259 0.0392,-0.16931 -0.23466,-0.21212 l -0.28281,-0.0442 0.21279,-0.0754 c 0.11703,-0.0415 0.24014,-0.055 0.27357,-0.0301 0.0334,0.0249 0.22495,0.0644 0.42557,0.0878 0.6307,0.0733 0.61842,0.0651 0.76213,0.51029 0.0718,0.22255 0.15286,0.44448 0.18005,0.49318 0.0402,0.0721 -0.11632,0.1296 -0.84154,0.3092 -0.49004,0.12135 -0.94652,0.23875 -1.0144,0.26087 -0.0922,0.0301 -0.19558,-0.025 -0.40894,-0.218 z"
       id="path8400"
       transform="scale(0.26458333)" />
    <path
       style="fill:none;stroke:#788ccf;stroke-width:0.0919108;stroke-miterlimit:4;stroke-dasharray:none;paint-order:markers stroke fill"
       d="m 277.39477,398.81776 c -0.20294,-0.13552 -0.46702,-0.35491 -0.58684,-0.48754 l -0.21786,-0.24114 0.11361,-0.19885 c 0.0625,-0.10937 0.14515,-0.29856 0.18369,-0.42042 0.0426,-0.13472 0.11818,-0.23416 0.19282,-0.25368 0.1178,-0.0308 0.12111,-0.0132 0.0819,0.43672 l -0.0409,0.46881 0.26511,0.21472 c 0.14581,0.1181 0.29902,0.23474 0.34045,0.25921 0.0827,0.0488 1.95652,-0.41933 2.04931,-0.51201 0.0642,-0.0641 -0.15371,-0.80928 -0.29195,-0.99834 -0.0564,-0.0771 -0.22789,-0.13854 -0.53238,-0.19066 l -0.44919,-0.0769 0.66432,0.0229 c 0.49782,0.0171 0.67664,0.0449 0.71345,0.11068 0.027,0.0483 0.0673,0.32369 0.0894,0.61201 0.0473,0.616 -0.005,0.71371 -0.45885,0.85372 -0.25205,0.0778 -1.41574,0.50486 -1.65131,0.60603 -0.0607,0.026 -0.23114,-0.0492 -0.46478,-0.20525 z"
       id="path8439"
       transform="scale(0.26458333)" />
    <path
       style="fill:none;stroke:#788ccf;stroke-width:0.0919108;stroke-miterlimit:4;stroke-dasharray:none;paint-order:markers stroke fill"
       d="m 277.3389,398.67272 c -0.19595,-0.14573 -0.42253,-0.33716 -0.50351,-0.42542 l -0.14725,-0.16046 0.14375,-0.31932 c 0.0791,-0.17563 0.18132,-0.36036 0.22724,-0.41052 0.0724,-0.0791 0.0791,-0.071 0.0501,0.0608 -0.0183,0.0836 -0.0407,0.28641 -0.0496,0.45071 -0.0162,0.29762 -0.0149,0.29976 0.33344,0.57219 l 0.34968,0.27345 0.89662,-0.22265 c 0.49315,-0.12246 0.92399,-0.22165 0.95743,-0.22042 0.0848,0.003 -1.73238,0.6666 -1.82576,0.6666 -0.0418,0 -0.23623,-0.11923 -0.43217,-0.26496 z"
       id="path8478"
       transform="scale(0.26458333)" />
    <path
       style="fill:none;stroke:#788ccf;stroke-width:0.0919108;stroke-miterlimit:4;stroke-dasharray:none;paint-order:markers stroke fill"
       d=""
       id="path8517"
       transform="scale(0.26458333)" />
    <path
       style="fill:none;stroke:#788ccf;stroke-width:0.0919108;stroke-miterlimit:4;stroke-dasharray:none;paint-order:markers stroke fill"
       d=""
       id="path8556"
       transform="scale(0.26458333)" />
    <path
       style="fill:none;stroke:#788ccf;stroke-width:0.0919108;stroke-miterlimit:4;stroke-dasharray:none;paint-order:markers stroke fill"
       d="m 277.23909,399.02417 c -0.36425,-0.22784 -0.6268,-0.46412 -0.82439,-0.74191 l -0.11759,-0.16532 0.20597,-0.23811 c 0.22164,-0.25622 0.2661,-0.2472 0.10723,0.0217 -0.0919,0.15557 -0.0913,0.17863 0.009,0.33224 0.12074,0.18428 0.68095,0.63184 0.98945,0.7905 0.19673,0.10118 0.21181,0.0993 0.71584,-0.091 0.28319,-0.10688 0.52779,-0.18142 0.54356,-0.16565 0.0393,0.0393 -1.0357,0.47495 -1.17212,0.47495 -0.0603,0 -0.26612,-0.0979 -0.45735,-0.21748 z"
       id="path8595"
       transform="scale(0.26458333)" />
    <path
       style="fill:none;stroke:#788ccf;stroke-width:0.0919108;stroke-miterlimit:4;stroke-dasharray:none;paint-order:markers stroke fill"
       d="m 275.69624,398.90393 c -0.0199,-0.052 0.009,-0.22298 0.0639,-0.37997 l 0.10022,-0.28543 -0.0242,0.28878 c -0.0179,0.21342 -0.003,0.28878 0.0577,0.28878 0.0477,0 0.0673,0.038 0.0468,0.0912 -0.0458,0.11924 -0.19823,0.11715 -0.24447,-0.003 z"
       id="path8634"
       transform="scale(0.26458333)" />
    <path
       style="fill:none;stroke:#788ccf;stroke-width:0.0919108;stroke-miterlimit:4;stroke-dasharray:none;paint-order:markers stroke fill"
       d="m 275.06759,400.35363 c -0.31503,-0.11584 -0.40658,-0.52139 -0.18239,-0.808 0.15024,-0.19207 0.15122,-0.24318 0.005,-0.24318 -0.10724,0 -0.11002,-0.0139 -0.0335,-0.16719 0.0949,-0.19033 0.27207,-0.83926 0.27207,-0.9966 0,-0.0576 0.0556,-0.12235 0.12349,-0.14391 0.0679,-0.0216 0.19007,-0.111 0.27144,-0.19875 0.0814,-0.0878 0.16744,-0.14008 0.19126,-0.11626 0.0238,0.0238 -0.0273,0.11825 -0.11349,0.20985 -0.13705,0.14558 -0.16123,0.23547 -0.192,0.71371 -0.0389,0.60378 -0.11611,0.9868 -0.25204,1.24967 -0.0492,0.0951 -0.0894,0.19838 -0.0894,0.22942 0,0.0999 0.35199,0.2062 0.83576,0.25237 l 0.47133,0.045 -0.60795,0.004 c -0.33437,0.002 -0.64899,-0.0114 -0.69914,-0.0298 z"
       id="path8673"
       transform="scale(0.26458333)" />
    <path
       style="fill:none;stroke:#788ccf;stroke-width:0.0919108;stroke-miterlimit:4;stroke-dasharray:none;paint-order:markers stroke fill"
       d="m 275.06944,399.34804 c -10e-4,-0.0585 -0.0415,-0.10639 -0.0899,-0.10639 -0.0768,0 -0.0769,-0.0268 -6.1e-4,-0.20938 0.0481,-0.11516 0.0712,-0.25195 0.0512,-0.30398 -0.02,-0.052 -0.008,-0.0946 0.0273,-0.0946 0.035,0 0.0818,-0.12127 0.10399,-0.26949 0.0222,-0.14821 0.0786,-0.28415 0.12531,-0.30206 0.10491,-0.0403 0.10485,-0.0101 -10e-4,0.64355 -0.0829,0.51039 -0.2116,0.89334 -0.21596,0.64234 z m -0.30398,-0.4618 c -0.002,-0.25591 0.17027,-0.86049 0.24565,-0.86049 0.0776,0 0.0716,0.0761 -0.0403,0.50798 -0.12727,0.49141 -0.20295,0.62129 -0.20539,0.35251 z"
       id="path8823"
       transform="scale(0.26458333)" />
    <path
       style="fill:none;stroke:#788ccf;stroke-width:0.0919108;stroke-miterlimit:4;stroke-dasharray:none;paint-order:markers stroke fill"
       d="m 275.69331,400.14097 c -0.0876,-0.0237 -0.18685,-0.026 -0.22048,-0.005 -0.039,0.0241 -0.043,-0.004 -0.0111,-0.0786 0.0275,-0.064 0.0686,-0.52673 0.0912,-1.02829 0.0226,-0.50156 0.0464,-0.7341 0.0528,-0.51676 0.0121,0.40866 0.24314,1.05991 0.29655,0.83593 0.014,-0.0585 0.0644,-0.10639 0.11211,-0.10639 0.1067,0 0.11583,0.22215 0.0107,0.26151 -0.13587,0.0509 0.59156,0.3443 1.14627,0.46236 0.29744,0.0633 0.51344,0.12092 0.48,0.12803 -0.20523,0.0436 -1.82662,0.0829 -1.95807,0.0474 z"
       id="path8862"
       transform="scale(0.26458333)" />
    <path
       style="fill:none;stroke:#788ccf;stroke-width:0.0919108;stroke-miterlimit:4;stroke-dasharray:none;paint-order:markers stroke fill"
       d="m 275.62852,400.04179 c -0.0577,-0.0366 -0.0668,-0.16319 -0.0358,-0.49651 0.0335,-0.36072 0.0521,-0.41873 0.0958,-0.29951 0.0882,0.24047 0.403,0.4628 0.87793,0.61998 0.24489,0.081 0.42732,0.16528 0.40541,0.18719 -0.0573,0.0573 -1.25101,0.0474 -1.34329,-0.0111 z"
       id="path8901"
       transform="scale(0.26458333)" />
    <path
       style="fill:none;stroke:#788ccf;stroke-width:0.0919108;stroke-miterlimit:4;stroke-dasharray:none;paint-order:markers stroke fill"
       d="m 275.78193,399.99008 c -0.0814,-0.0213 -0.10639,-0.0919 -0.10639,-0.30135 v -0.27354 l 0.22663,0.18681 c 0.26557,0.21889 0.32053,0.23008 0.32053,0.0652 0,-0.12674 0.0882,-0.16397 0.15034,-0.0634 0.0198,0.032 0.0806,0.041 0.13515,0.0201 0.0702,-0.0269 0.0852,-0.0153 0.0512,0.0396 -0.0358,0.058 -0.0139,0.0668 0.0864,0.035 0.12507,-0.0397 0.12912,-0.0328 0.0582,0.0997 -0.0463,0.0864 -0.0861,0.11259 -0.10148,0.0666 -0.0305,-0.0914 -0.13673,-0.10153 -0.13673,-0.0131 0,0.0345 0.0615,0.0875 0.13679,0.11774 0.10015,0.0403 0.0228,0.0541 -0.28878,0.0518 -0.23406,-0.002 -0.47344,-0.0157 -0.53196,-0.031 z m 0.62315,-0.23167 c 0,-0.0502 -0.0274,-0.0912 -0.0608,-0.0912 -0.0334,0 -0.0608,0.041 -0.0608,0.0912 0,0.0502 0.0274,0.0912 0.0608,0.0912 0.0334,0 0.0608,-0.041 0.0608,-0.0912 z"
       id="path8940"
       transform="scale(0.26458333)" />
    <path
       style="fill:none;stroke:#788ccf;stroke-width:0.0919108;stroke-miterlimit:4;stroke-dasharray:none;paint-order:markers stroke fill"
       d="m 278.04655,399.27205 c 0,-0.0527 0.0362,-0.0735 0.0912,-0.0524 0.11427,0.0438 0.11427,0.0609 0,0.10476 -0.055,0.0211 -0.0912,3.1e-4 -0.0912,-0.0524 z m 0.49116,-0.0659 c 0.003,-0.0708 0.0173,-0.0852 0.0367,-0.0367 0.0176,0.0439 0.0154,0.0963 -0.005,0.11652 -0.0202,0.0202 -0.0346,-0.0157 -0.0319,-0.0798 z m 0.11679,-0.0557 c 0,-0.0502 0.0265,-0.0912 0.0589,-0.0912 0.0324,0 0.0431,0.041 0.0239,0.0912 -0.0192,0.0502 -0.0457,0.0912 -0.0589,0.0912 -0.0131,0 -0.0239,-0.041 -0.0239,-0.0912 z"
       id="path8979"
       transform="scale(0.26458333)" />
    <path
       style="fill:none;stroke:#788ccf;stroke-width:0.0919108;stroke-miterlimit:4;stroke-dasharray:none;paint-order:markers stroke fill"
       d="m 279.55235,399.04903 c 0.0353,-0.0353 0.10012,-0.0523 0.14398,-0.0377 0.0455,0.0152 0.018,0.0427 -0.0642,0.0642 -0.10113,0.0264 -0.12486,0.0185 -0.0797,-0.0266 z"
       id="path9018"
       transform="scale(0.26458333)" />
    <path
       style="fill:none;stroke:#788ccf;stroke-width:0.0919108;stroke-miterlimit:4;stroke-dasharray:none;paint-order:markers stroke fill"
       d="m 280.27023,399.16566 c 0.26221,-0.27586 0.50225,-0.51197 0.5334,-0.52469 0.0327,-0.0133 0.0392,0.051 0.0154,0.15199 -0.0542,0.22996 -0.70997,0.87426 -0.88984,0.87426 -0.11286,0 -0.0554,-0.0845 0.34104,-0.50156 z"
       id="path9057"
       transform="scale(0.26458333)" />
    <path
       style="fill:none;stroke:#788ccf;stroke-width:0.0919108;stroke-miterlimit:4;stroke-dasharray:none;paint-order:markers stroke fill"
       d=""
       id="path9096"
       transform="scale(0.26458333)" />
    <path
       style="fill:none;stroke:#788ccf;stroke-width:0.0919108;stroke-miterlimit:4;stroke-dasharray:none;paint-order:markers stroke fill"
       d="m 279.08007,399.05001 c 0,-0.0283 -0.0593,-0.0515 -0.13173,-0.0515 -0.27103,0 -0.0472,-0.0722 0.27442,-0.0885 0.30858,-0.0156 0.32931,-0.008 0.26647,0.0922 -0.0685,0.10965 -0.40916,0.14951 -0.40916,0.0479 z"
       id="path9172"
       transform="scale(0.26458333)" />
    <path
       style="fill:none;stroke:#788ccf;stroke-width:0.0919108;stroke-miterlimit:4;stroke-dasharray:none;paint-order:markers stroke fill"
       d="m 278.44172,398.45132 c -0.0207,-0.0334 -0.0102,-0.0608 0.0232,-0.0608 0.0334,0 0.0777,0.0274 0.0984,0.0608 0.0207,0.0334 0.0102,0.0608 -0.0232,0.0608 -0.0334,0 -0.0777,-0.0274 -0.0984,-0.0608 z"
       id="path9211"
       transform="scale(0.26458333)" />
    <path
       style="fill:none;stroke:#788ccf;stroke-width:0.0919108;stroke-miterlimit:4;stroke-dasharray:none;paint-order:markers stroke fill"
       d="m 277.519,398.24121 c -0.23995,-0.20539 -0.24479,-0.21732 -0.21593,-0.53195 0.0162,-0.17702 0.0593,-0.37658 0.0956,-0.44345 0.0567,-0.10428 0.0721,-0.075 0.10815,0.2057 0.0231,0.18001 0.0671,0.34416 0.0978,0.36477 0.0306,0.0206 0.0733,0.0854 0.0949,0.14387 0.0544,0.14744 0.24044,0.133 0.39162,-0.0304 0.18214,-0.19687 0.39619,-0.63419 0.39619,-0.80943 0,-0.14531 0.0103,-0.14899 0.31158,-0.1116 0.47748,0.0593 0.59244,0.13674 0.71259,0.48026 0.15775,0.45101 0.14821,0.50516 -0.097,0.55117 -0.11703,0.022 -0.21278,0.0624 -0.21278,0.0899 0,0.0275 -0.0752,0.0488 -0.16719,0.0474 -0.0919,-10e-4 -0.37871,0.0551 -0.63723,0.12565 -0.25852,0.0705 -0.50666,0.12827 -0.55141,0.12827 -0.0447,0 -0.19183,-0.0946 -0.32683,-0.21011 z m 0.48311,-0.073 c -0.0412,-0.0167 -0.12323,-0.0177 -0.18238,-0.002 -0.0592,0.0154 -0.0255,0.029 0.0748,0.0303 0.10031,0.001 0.14871,-0.0114 0.10755,-0.028 z"
       id="path9250"
       transform="scale(0.26458333)" />
    <path
       style="fill:none;stroke:#788ccf;stroke-width:0.0919108;stroke-miterlimit:4;stroke-dasharray:none;paint-order:markers stroke fill"
       d="m 277.77567,398.33409 c -0.0193,-0.0313 0.0405,-0.0656 0.13306,-0.0762 0.0925,-0.0106 0.16822,-0.0513 0.16822,-0.0903 0,-0.039 0.0205,-0.0914 0.0456,-0.11652 0.0251,-0.0251 0.0456,-0.0974 0.0456,-0.16064 0,-0.0633 0.0263,-0.0988 0.0585,-0.0789 0.0703,0.0435 0.30631,-0.39857 0.30631,-0.5737 0,-0.10293 0.0387,-0.12385 0.22798,-0.12308 0.12539,5.1e-4 0.25976,0.0211 0.29859,0.0459 0.0388,0.0247 0.10198,0.21792 0.14032,0.42935 0.0798,0.44012 0.0302,0.55738 -0.23599,0.55738 -0.0892,0 -0.31155,0.0376 -0.49412,0.0836 -0.60557,0.15254 -0.65861,0.16042 -0.69402,0.10313 z"
       id="path9289"
       transform="scale(0.26458333)" />
    <path
       style="fill:none;stroke:#788ccf;stroke-width:0.0919108;stroke-miterlimit:4;stroke-dasharray:none;paint-order:markers stroke fill"
       d="m 278.20143,398.07135 c 0.0228,-0.0752 0.0896,-0.19151 0.14849,-0.25838 0.15132,-0.17195 0.24379,-0.36643 0.24379,-0.51277 0,-0.0978 0.0387,-0.12558 0.17494,-0.12558 0.24446,0 0.32673,0.12984 0.33482,0.52844 l 0.007,0.34423 -0.42557,0.0756 c -0.23406,0.0416 -0.44793,0.0778 -0.47526,0.0804 -0.0273,0.003 -0.031,-0.0568 -0.008,-0.13198 z"
       id="path9328"
       transform="scale(0.26458333)" />
    <path
       style="fill:none;stroke:#788ccf;stroke-width:0.0919108;stroke-miterlimit:4;stroke-dasharray:none;paint-order:markers stroke fill"
       d="m 278.72616,398.29933 c -0.0727,-0.0925 -0.18755,-0.15534 -0.29319,-0.16055 -0.0955,-0.005 -0.0232,-0.0275 0.16074,-0.0507 0.38498,-0.0486 0.58444,-0.0101 0.36614,0.0707 -0.13517,0.05 -0.13618,0.0556 -0.0307,0.17214 0.0945,0.10446 0.0962,0.12045 0.0128,0.12045 -0.0529,0 -0.15,-0.0684 -0.21575,-0.15199 z"
       id="path9367"
       transform="scale(0.26458333)" />
    <path
       style="fill:none;stroke:#788ccf;stroke-width:0.0919108;stroke-miterlimit:4;stroke-dasharray:none;paint-order:markers stroke fill"
       d="m 276.85277,398.42127 c -0.0192,-0.05 -0.0528,-0.0797 -0.0748,-0.0662 -0.0219,0.0136 -0.0927,-0.0139 -0.15724,-0.0611 -0.1097,-0.0802 -0.10423,-0.0858 0.0841,-0.0858 0.15251,0 0.18693,-0.0185 0.14168,-0.076 -0.0404,-0.0514 -0.0283,-0.145 0.0373,-0.28878 l 0.0971,-0.21278 0.0199,0.27358 c 0.0141,0.19417 0.0662,0.3221 0.17937,0.44076 0.0877,0.092 0.12863,0.16719 0.0909,0.16719 -0.0377,0 -0.0835,-0.0241 -0.10162,-0.0535 -0.0182,-0.0294 -0.0861,-0.0673 -0.15103,-0.0843 -0.083,-0.0217 -0.1084,-0.006 -0.0856,0.0535 0.0178,0.0464 0.0149,0.0843 -0.006,0.0843 -0.0214,0 -0.0545,-0.0409 -0.0737,-0.0908 z"
       id="path9406"
       transform="scale(0.26458333)" />
    <path
       style="fill:none;stroke:#788ccf;stroke-width:0.0919108;stroke-miterlimit:4;stroke-dasharray:none;paint-order:markers stroke fill"
       d="m 275.5362,398.31037 c -0.0191,-0.0497 -0.0183,-0.1067 0.002,-0.12669 0.0754,-0.0754 0.18544,-0.0319 0.21608,0.0853 0.0175,0.0669 0.007,0.12159 -0.0233,0.12159 -0.0303,0 -0.0555,-0.0342 -0.056,-0.076 -7e-4,-0.0569 -0.0138,-0.0556 -0.0523,0.005 -0.0419,0.0661 -0.0578,0.0644 -0.0861,-0.009 z"
       id="path9445"
       transform="scale(0.26458333)" />
    <path
       style="fill:none;stroke:#788ccf;stroke-width:0.0919108;stroke-miterlimit:4;stroke-dasharray:none;paint-order:markers stroke fill"
       d=""
       id="path9484"
       transform="scale(0.26458333)" />
    <path
       style="fill:none;stroke:#788ccf;stroke-width:0.0919108;stroke-miterlimit:4;stroke-dasharray:none;paint-order:markers stroke fill"
       d="m 277.34741,399.69881 c -0.0334,-0.0108 -0.29847,-0.091 -0.58896,-0.17837 -0.36824,-0.11069 -0.56417,-0.20454 -0.6471,-0.30997 -0.1238,-0.15738 -0.2823,-0.20743 -0.23823,-0.0752 0.0139,0.0418 0.0504,0.0764 0.0811,0.0769 0.1191,0.002 0.19064,0.0932 0.17685,0.22555 -0.0262,0.25102 -0.0313,0.26064 -0.0903,0.16868 -0.0322,-0.0502 -0.0415,-0.14569 -0.0207,-0.2123 0.0333,-0.1066 0.0258,-0.11117 -0.0622,-0.0382 -0.0894,0.0742 -0.12442,0.0542 -0.10924,-0.0625 0.003,-0.0216 -0.0487,-0.0253 -0.11439,-0.008 -0.0688,0.018 -0.11952,9e-4 -0.11952,-0.0402 0,-0.0393 0.0255,-0.0557 0.0566,-0.0365 0.11449,0.0708 0.11536,-0.0693 9.4e-4,-0.15174 -0.0852,-0.0614 -0.11713,-0.15393 -0.11406,-0.33025 0.003,-0.18361 0.0162,-0.21451 0.0518,-0.12337 0.0461,0.11785 0.0489,0.1174 0.0908,-0.0147 0.0238,-0.0749 0.0227,-0.16953 -0.002,-0.21021 -0.0698,-0.11302 -0.0826,-0.35269 -0.0188,-0.35269 0.0312,0 0.0594,0.0479 0.0627,0.10639 0.004,0.0709 0.0223,0.0557 0.0547,-0.0456 0.036,-0.11232 0.0508,-0.0489 0.0567,0.24318 0.005,0.2421 0.0426,0.44089 0.0973,0.51318 0.0491,0.0649 0.0893,0.087 0.0893,0.0492 0,-0.0379 -0.0274,-0.0857 -0.0608,-0.1064 -0.0334,-0.0207 -0.0605,-0.16591 -0.0602,-0.32276 l 5.7e-4,-0.28519 0.17884,0.31181 c 0.25726,0.44854 1.23269,1.11548 1.63485,1.1178 0.12629,7.3e-4 0.14134,0.0136 0.0698,0.0599 -0.0873,0.0564 -0.32747,0.073 -0.45596,0.0316 z m -1.48948,-0.82193 c 0,-0.0334 -0.0121,-0.0608 -0.0268,-0.0608 -0.0147,0 -0.0437,0.0274 -0.0644,0.0608 -0.0207,0.0334 -0.009,0.0608 0.0268,0.0608 0.0354,0 0.0644,-0.0274 0.0644,-0.0608 z"
       id="path9523"
       transform="scale(0.26458333)" />
    <path
       style="fill:none;stroke:#788ccf;stroke-width:0.0919108;stroke-miterlimit:4;stroke-dasharray:none;paint-order:markers stroke fill"
       d="m 276.71806,399.4293 c -0.44813,-0.15476 -0.63348,-0.30506 -0.64652,-0.52427 -0.006,-0.0991 -0.0329,-0.23065 -0.0601,-0.29239 -0.0272,-0.0617 0.0851,0.0223 0.24951,0.18667 0.1644,0.16441 0.44839,0.39958 0.63109,0.52262 0.36686,0.24706 0.31795,0.27724 -0.17396,0.10737 z"
       id="path9562"
       transform="scale(0.26458333)" />
    <path
       style="fill:none;stroke:#788ccf;stroke-width:0.0919108;stroke-miterlimit:4;stroke-dasharray:none;paint-order:markers stroke fill"
       d=""
       id="path9601"
       transform="scale(0.26458333)" />
    <path
       style="fill:none;stroke:#788ccf;stroke-width:0.183822;stroke-miterlimit:4;stroke-dasharray:none;paint-order:markers stroke fill"
       d="m 297.22891,473.23588 c 0.71879,-0.38019 1.58912,-0.59375 2.72661,-0.66906 1.39239,-0.0922 1.30067,0.009 -0.15792,0.17425 -0.64564,0.0731 -1.44288,0.25634 -1.86901,0.42949 -0.86555,0.35171 -1.32163,0.39428 -0.69968,0.0653 z"
       id="path9640"
       transform="scale(0.26458333)" />
    <path
       style="fill:none;stroke:#788ccf;stroke-width:0.183822;stroke-miterlimit:4;stroke-dasharray:none;paint-order:markers stroke fill"
       d="m 296.43708,473.16223 c 0.2675,-0.16648 0.74148,-0.39478 1.05328,-0.50733 0.49735,-0.17953 0.54212,-0.22351 0.36478,-0.35839 -0.17444,-0.13268 -0.13548,-0.15691 0.2842,-0.17673 0.48365,-0.0228 0.48297,-0.0234 -0.12159,-0.10635 -0.42669,-0.0585 -0.49919,-0.0905 -0.24318,-0.10737 0.33723,-0.0222 0.31428,-0.0462 -0.30397,-0.3182 -0.36781,-0.16181 -0.90129,-0.2964 -1.18551,-0.29909 -0.28422,-0.003 -0.51676,-0.0596 -0.51676,-0.12647 0,-0.0719 0.45952,-0.12377 1.12471,-0.12693 1.23273,-0.006 1.81415,-0.16087 2.46488,-0.65721 0.23526,-0.17944 0.63183,-0.35099 0.88128,-0.38124 0.25279,-0.0306 0.37281,-0.0136 0.27115,0.0384 -0.10031,0.0514 -0.497,0.30635 -0.88153,0.5666 -0.50784,0.3437 -0.69914,0.54892 -0.69914,0.74999 0,0.15225 -0.033,0.36291 -0.0734,0.46812 -0.0919,0.23939 0.0207,0.27529 1.22852,0.39181 l 0.97272,0.0938 -0.72954,0.09 c -0.40125,0.0495 -0.97576,0.1121 -1.2767,0.1391 -0.75698,0.0679 -1.02022,0.14698 -1.89675,0.56973 -0.93935,0.45303 -1.41403,0.49119 -0.71744,0.0577 z"
       id="path9679"
       transform="scale(0.26458333)" />
    <path
       style="fill:none;stroke:#788ccf;stroke-width:0.183822;stroke-miterlimit:4;stroke-dasharray:none;paint-order:markers stroke fill"
       d=""
       id="path9718"
       transform="scale(0.26458333)" />
    <path
       style="fill:none;stroke:#788ccf;stroke-width:0.183822;stroke-miterlimit:4;stroke-dasharray:none;paint-order:markers stroke fill"
       d=""
       id="path9757"
       transform="scale(0.26458333)" />
    <path
       style="fill:none;stroke:#788ccf;stroke-width:0.183822;stroke-miterlimit:4;stroke-dasharray:none;paint-order:markers stroke fill"
       d=""
       id="path9796"
       transform="scale(0.26458333)" />
    <path
       style="fill:none;stroke:#788ccf;stroke-width:0.183822;stroke-miterlimit:4;stroke-dasharray:none;paint-order:markers stroke fill"
       d="m 297.37038,470.73712 c 0.51331,-0.0864 1.15561,-0.28202 1.42732,-0.43473 0.60657,-0.34091 0.79227,-0.24015 0.21497,0.11665 -0.45492,0.28116 -1.44528,0.50721 -2.13622,0.48761 -0.29282,-0.008 -0.12807,-0.0649 0.49393,-0.16953 z"
       id="path9835"
       transform="scale(0.26458333)" />
    <path
       style="fill:none;stroke:#788ccf;stroke-width:0.183822;stroke-miterlimit:4;stroke-dasharray:none;paint-order:markers stroke fill"
       d="m 299.11684,471.92124 c -0.18844,-0.49108 0.24096,-1.10974 1.06751,-1.53803 0.24617,-0.12756 0.44759,-0.27803 0.44759,-0.33437 0,-0.0564 0.0547,-0.10245 0.12159,-0.10245 0.18009,0 0.14983,0.72904 -0.0304,0.73225 -0.0836,0.001 -0.28418,0.10432 -0.44575,0.22853 l -0.29376,0.22582 0.33355,0.33355 c 0.36808,0.36807 0.51034,0.30988 0.59512,-0.24345 0.0307,-0.20062 0.0486,-0.0912 0.0397,0.24318 l -0.0161,0.60795 -0.87675,0.009 c -0.64722,0.007 -0.89392,-0.0358 -0.94233,-0.16193 z m 0.056,-1.24149 c 0,-0.0648 0.0821,-0.0863 0.18238,-0.0478 0.10032,0.0385 0.18239,0.0915 0.18239,0.11777 0,0.0263 -0.0821,0.0478 -0.18239,0.0478 -0.10031,0 -0.18238,-0.053 -0.18238,-0.11778 z"
       id="path9874"
       transform="scale(0.26458333)" />
    <path
       style="fill:none;stroke:#788ccf;stroke-width:0.183822;stroke-miterlimit:4;stroke-dasharray:none;paint-order:markers stroke fill"
       d="m 300.88472,470.84819 c 0.006,-0.14165 0.0346,-0.17046 0.0735,-0.0735 0.0351,0.0878 0.0308,0.19264 -0.01,0.23305 -0.0404,0.0404 -0.0691,-0.0314 -0.0639,-0.15959 z"
       id="path9913"
       transform="scale(0.26458333)" />
    <path
       style="fill:none;stroke:#788ccf;stroke-width:0.183822;stroke-miterlimit:4;stroke-dasharray:none;paint-order:markers stroke fill"
       d="m 298.86888,472.67669 c -0.36318,-0.17572 -0.36226,-0.17619 0.21279,-0.10845 0.3465,0.0408 0.57755,0.0198 0.57755,-0.0525 0,-0.0663 0.12311,-0.14238 0.27358,-0.16903 0.16939,-0.03 0.034,-0.085 -0.35542,-0.14447 -0.50263,-0.0767 -0.61418,-0.13464 -0.55524,-0.28824 0.0482,-0.12549 0.0906,-0.14158 0.12237,-0.0464 0.0315,0.0945 0.34199,0.14584 0.88148,0.14584 h 0.83287 l -0.0104,-0.36649 c -0.006,-0.20156 0.0253,-0.40219 0.0689,-0.44583 0.0436,-0.0436 0.0793,0.14864 0.0793,0.42728 0,0.48724 -0.0151,0.50724 -0.39516,0.52263 l -0.39517,0.016 0.42556,0.0896 0.42557,0.0896 -0.42557,0.0304 -0.42556,0.0304 0.36477,0.087 0.36477,0.087 -0.48636,0.0867 c -1.00732,0.17962 -1.22554,0.18087 -1.58068,0.009 z"
       id="path9952"
       transform="scale(0.26458333)" />
    <path
       style="fill:none;stroke:#788ccf;stroke-width:0.183822;stroke-miterlimit:4;stroke-dasharray:none;paint-order:markers stroke fill"
       d="m 298.80809,472.71243 -0.30398,-0.13672 0.36477,-0.0409 c 0.20063,-0.0225 0.50156,-0.0735 0.66875,-0.11341 0.28062,-0.0669 0.26669,-0.0833 -0.18142,-0.21346 -0.32663,-0.0949 -0.49779,-0.21932 -0.52329,-0.38052 -0.0296,-0.18686 -0.0122,-0.20179 0.0792,-0.0679 0.0925,0.13559 0.12871,0.11002 0.17237,-0.12159 0.049,-0.2601 0.0571,-0.26394 0.0718,-0.0339 0.0188,0.29495 0.30907,0.4052 1.0733,0.40769 0.46666,0.002 0.80463,-0.16419 0.53342,-0.26153 -0.0625,-0.0224 -0.0355,-0.17758 0.0599,-0.34476 0.16577,-0.29043 0.17255,-0.27565 0.15205,0.33176 -0.0118,0.34966 -0.0598,0.69776 -0.10663,0.77356 -0.0899,0.14552 -0.93937,0.34483 -1.45228,0.34076 -0.16719,-0.001 -0.44076,-0.0639 -0.60795,-0.13913 z"
       id="path9991"
       transform="scale(0.26458333)" />
    <path
       style="fill:none;stroke:#788ccf;stroke-width:0.183822;stroke-miterlimit:4;stroke-dasharray:none;paint-order:markers stroke fill"
       d="m 295.76833,473.3592 c 0,-0.14983 0.66139,-0.61679 0.8699,-0.61418 0.09,10e-4 -0.0142,0.11593 -0.23155,0.25512 -0.21734,0.13919 -0.39517,0.30241 -0.39517,0.36272 0,0.0603 -0.0547,0.10965 -0.12159,0.10965 -0.0669,0 -0.12159,-0.051 -0.12159,-0.11331 z"
       id="path10030"
       transform="scale(0.26458333)" />
    <path
       style="fill:none;stroke:#788ccf;stroke-width:0.183822;stroke-miterlimit:4;stroke-dasharray:none;paint-order:markers stroke fill"
       d="m 295.78633,472.87519 c 0.034,-0.23255 0.17794,-0.33848 0.70063,-0.51564 0.36181,-0.12263 0.68482,-0.24996 0.71781,-0.28295 0.0941,-0.0941 -0.78625,-0.42794 -1.12856,-0.42794 -0.16933,0 -0.30788,-0.0547 -0.30788,-0.12159 0,-0.17342 0.46707,-0.15032 1.16773,0.0577 0.446,0.13245 0.60865,0.24223 0.62203,0.41982 0.0141,0.18697 -0.13566,0.29792 -0.67304,0.49868 -0.38013,0.14202 -0.79248,0.34964 -0.91633,0.46138 -0.21349,0.19262 -0.22296,0.18798 -0.18239,-0.0895 z"
       id="path10069"
       transform="scale(0.26458333)" />
    <path
       style="fill:none;stroke:#788ccf;stroke-width:0.183822;stroke-miterlimit:4;stroke-dasharray:none;paint-order:markers stroke fill"
       d=""
       id="path10108"
       transform="scale(0.26458333)" />
    <path
       style="fill:none;stroke:#788ccf;stroke-width:0.183822;stroke-miterlimit:4;stroke-dasharray:none;paint-order:markers stroke fill"
       d="m 295.53475,472.06409 c 0.006,-0.14164 0.0346,-0.17046 0.0735,-0.0735 0.0351,0.0878 0.0308,0.19264 -0.01,0.23305 -0.0404,0.0404 -0.0691,-0.0314 -0.0639,-0.15959 z"
       id="path10147"
       transform="scale(0.26458333)" />
    <path
       style="fill:none;stroke:#788ccf;stroke-width:0.183822;stroke-miterlimit:4;stroke-dasharray:none;paint-order:markers stroke fill"
       d="m 298.07855,471.77875 c 0,-0.0622 -0.28726,-0.2235 -0.63835,-0.35844 l -0.63835,-0.24534 0.60795,-0.0117 c 0.33437,-0.006 0.82681,-0.0905 1.09431,-0.18689 0.59616,-0.21477 0.60634,-0.21537 0.4545,-0.0269 -0.0673,0.0836 -0.16046,0.32982 -0.20694,0.54716 -0.0671,0.31372 -0.14515,0.39517 -0.37881,0.39517 -0.16187,0 -0.29431,-0.0509 -0.29431,-0.11309 z"
       id="path10260"
       transform="scale(0.26458333)" />
    <path
       style="fill:none;stroke:#788ccf;stroke-width:0.183822;stroke-miterlimit:4;stroke-dasharray:none;paint-order:markers stroke fill"
       d=""
       id="path10299"
       transform="scale(0.26458333)" />
    <path
       style="fill:none;stroke:#788ccf;stroke-width:0.183822;stroke-miterlimit:4;stroke-dasharray:none;paint-order:markers stroke fill"
       d="m 298.29663,471.72583 c -0.23309,-0.15818 -0.48913,-0.30938 -0.56899,-0.336 -0.0799,-0.0266 0.10684,-0.10687 0.41489,-0.17834 0.55688,-0.1292 0.55966,-0.12826 0.48599,0.16524 -0.0407,0.16235 -0.0103,0.37203 0.0676,0.46594 0.20445,0.24635 0.0836,0.211 -0.39952,-0.11684 z"
       id="path10338"
       transform="scale(0.26458333)" />
    <path
       style="fill:none;stroke:#788ccf;stroke-width:0.183822;stroke-miterlimit:4;stroke-dasharray:none;paint-order:markers stroke fill"
       d=""
       id="path10377"
       transform="scale(0.26458333)" />
    <path
       style="fill:none;stroke:#788ccf;stroke-width:0.183822;stroke-miterlimit:4;stroke-dasharray:none;paint-order:markers stroke fill"
       d="m 297.01463,472.45828 c -0.28422,-0.0697 -0.51676,-0.17204 -0.51676,-0.22734 0,-0.10967 0.42749,-0.0244 1.09432,0.21839 0.50403,0.18348 0.1558,0.18888 -0.57756,0.009 z"
       id="path10416"
       transform="scale(0.26458333)" />
    <path
       style="fill:none;stroke:#788ccf;stroke-width:0.183822;stroke-miterlimit:4;stroke-dasharray:none;paint-order:markers stroke fill"
       d="m 295.88992,471.68487 c 0,-0.0737 0.17231,-0.19408 0.38292,-0.2675 0.47525,-0.16567 0.62615,-0.16906 0.52901,-0.0119 -0.0413,0.0669 -0.19776,0.12159 -0.34763,0.12159 -0.14986,0 -0.33814,0.0657 -0.41839,0.14591 -0.0991,0.0991 -0.14591,0.10291 -0.14591,0.0119 z"
       id="path10529"
       transform="scale(0.26458333)" />
    <path
       style="fill:none;stroke:#788ccf;stroke-width:0.183822;stroke-miterlimit:4;stroke-dasharray:none;paint-order:markers stroke fill"
       d=""
       id="path10568"
       transform="scale(0.26458333)" />
    <path
       style="fill:none;stroke:#788ccf;stroke-width:0.183822;stroke-miterlimit:4;stroke-dasharray:none;paint-order:markers stroke fill"
       d="m 296.77253,471.01031 c -0.009,-0.11703 1.3e-4,-0.21278 0.0203,-0.21278 0.13867,0 1.26548,-0.24203 1.4391,-0.30911 0.16307,-0.063 0.19623,-0.036 0.13898,0.11318 -0.0416,0.10844 -0.21868,0.19937 -0.39654,0.20363 -0.31339,0.008 -0.31458,0.0104 -0.0478,0.11767 0.4663,0.18743 0.30403,0.30019 -0.43199,0.30019 -0.58478,0 -0.70848,-0.0365 -0.72204,-0.21278 z"
       id="path10607"
       transform="scale(0.26458333)" />
    <path
       style="fill:none;stroke:#788ccf;stroke-width:0.183822;stroke-miterlimit:4;stroke-dasharray:none;paint-order:markers stroke fill"
       d="m 299.18479,470.82316 c -0.0921,-0.16447 -0.17874,-0.17415 -0.54719,-0.0611 -0.2408,0.0739 -0.40715,0.0847 -0.36967,0.0241 0.0375,-0.0607 0.14699,-0.11026 0.24336,-0.11026 0.0964,0 0.17521,-0.0802 0.17521,-0.17811 0,-0.17489 0.35172,-0.42985 0.59297,-0.42985 0.0674,0 0.10175,0.10828 0.0763,0.24063 -0.0682,0.35397 0.0826,0.38187 0.53063,0.0982 0.2964,-0.18766 0.35748,-0.27874 0.23783,-0.3546 -0.1153,-0.0731 -0.0854,-0.10261 0.1054,-0.10394 0.48284,-0.003 0.39893,0.19157 -0.27287,0.63399 -0.57646,0.37963 -0.67679,0.41094 -0.77194,0.24091 z"
       id="path10646"
       transform="scale(0.26458333)" />
    <path
       style="fill:none;stroke:#788ccf;stroke-width:0.183822;stroke-miterlimit:4;stroke-dasharray:none;paint-order:markers stroke fill"
       d="m 298.67451,472.90512 c 0.12653,-0.0543 0.0952,-0.11475 -0.12159,-0.2349 -0.28831,-0.15977 -0.28662,-0.16189 0.13358,-0.16798 0.69745,-0.0101 0.81862,-0.18302 0.28362,-0.40474 l -0.46601,-0.19313 0.43911,-0.006 c 0.40647,-0.006 0.4346,-0.0298 0.37852,-0.32317 -0.0894,-0.46742 0.20421,-0.58897 0.57943,-0.23991 0.16786,0.15616 0.41699,0.34119 0.5536,0.41117 0.20976,0.10746 0.25135,0.088 0.26739,-0.12486 0.0104,-0.13866 0.0765,-0.30961 0.14677,-0.37989 0.0893,-0.0893 0.12778,0.0952 0.12778,0.61307 0,0.83474 -0.006,0.84003 -1.00164,0.95092 -0.3519,0.0392 -0.83133,0.0941 -1.06539,0.12201 -0.23406,0.0279 -0.34889,0.0179 -0.25517,-0.0223 z"
       id="path10685"
       transform="scale(0.26458333)" />
    <path
       style="fill:none;stroke:#788ccf;stroke-width:0.264583px;stroke-linecap:butt;stroke-linejoin:miter;stroke-opacity:1"
       d="m 79.858848,124.00433 c -0.03062,0.16112 -0.06121,0.32204 0.0064,0.49713 0.06764,0.1751 0.23322,0.36429 0.398556,0.5532"
       id="path10831" />
    <path
       style="fill:none;stroke:#788ccf;stroke-width:0.264583px;stroke-linecap:butt;stroke-linejoin:miter;stroke-opacity:1"
       d="m 73.862426,91.201424 2.015528,6.965945"
       id="path10835" />
    <path
       style="fill:none;stroke:#788ccf;stroke-width:0.264583px;stroke-linecap:butt;stroke-linejoin:miter;stroke-opacity:1"
       d="m 78.686273,89.873824 c 0,0.08896 1.527654,7.198971 1.527654,7.198971"
       id="path10837" />
    <path
       style="fill:none;stroke:#788ccf;stroke-width:0.264583px;stroke-linecap:butt;stroke-linejoin:miter;stroke-opacity:1"
       d="m 73.862424,91.201424 c 1.779338,0.146688 3.353195,-0.413054 4.823849,-1.327602"
       id="path10839" />
    <path
       style="fill:none;stroke:#788ccf;stroke-width:0.264583px;stroke-linecap:butt;stroke-linejoin:miter;stroke-opacity:1"
       d="m 73.862424,91.201424 c 1.362883,-0.900289 2.983774,-1.31865 4.823849,-1.327602"
       id="path10931" />
    <path
       style="fill:none;stroke:#788ccf;stroke-width:0.264583px;stroke-linecap:butt;stroke-linejoin:miter;stroke-opacity:1"
       d="m 89.422024,210.75953 0.06068,2.79648 c 0,0 66.367406,0.88007 66.367406,0.71364 0,-0.16644 0.0643,-2.7544 0.0643,-2.7544 z"
       id="path11061" />
    <path
       style="fill:none;stroke:#788ccf;stroke-width:0.264583px;stroke-linecap:butt;stroke-linejoin:miter;stroke-opacity:1"
       d="m 89.482703,213.55601 -1.262838,0.01 0.0612,1.40357 68.592095,0.66988 0.009,-1.31728 -1.12783,-0.0132"
       id="path11063" />
    <path
       style="fill:none;stroke:#788ccf;stroke-width:0.264037px;stroke-linecap:butt;stroke-linejoin:miter;stroke-opacity:1"
       d="m 150.269,160.28326 -0.80295,51.21573"
       id="path11501" />
    <path
       style="fill:none;stroke:#788ccf;stroke-width:0.264583px;stroke-linecap:butt;stroke-linejoin:miter;stroke-opacity:1"
       d="m 152.42572,160.77457 -0.77126,50.67662"
       id="path11503" />
  </g>
</svg>
