<?xml version="1.0" encoding="UTF-8" standalone="no"?>
<!-- Created with Inkscape (http://www.inkscape.org/) -->

<svg
   width="152.10257mm"
   height="142.33041mm"
   viewBox="0 0 152.10257 142.33041"
   version="1.1"
   id="svg5"
   xmlns="http://www.w3.org/2000/svg"
   xmlns:svg="http://www.w3.org/2000/svg">
  <defs
     id="defs2" />
  <g
     id="layer1"
     transform="translate(-35.169835,-76.348997)">
    <path
       style="fill:none;stroke:#788ccf;stroke-width:0.8;stroke-linecap:butt;stroke-linejoin:miter;stroke-opacity:1;stroke-miterlimit:4;stroke-dasharray:none"
       d="m 36.633642,146.87535 v -21.618 h 5.582152 v 21.72563"
       id="path1290" />
    <path
       style="fill:none;stroke:#788ccf;stroke-width:0.8;stroke-linecap:butt;stroke-linejoin:miter;stroke-opacity:1;stroke-miterlimit:4;stroke-dasharray:none"
       d="m 36.093101,144.25803 6.512216,0.11155"
       id="path1292" />
    <path
       style="fill:none;stroke:#788ccf;stroke-width:0.8;stroke-linecap:butt;stroke-linejoin:miter;stroke-opacity:1;stroke-miterlimit:4;stroke-dasharray:none"
       d="m 36.633642,153.97127 -0.43646,49.25045"
       id="path1296" />
    <path
       style="fill:none;stroke:#788ccf;stroke-width:0.8;stroke-linecap:butt;stroke-linejoin:miter;stroke-opacity:1;stroke-miterlimit:4;stroke-dasharray:none"
       d="m 41.6126,154.47203 -0.413348,48.6816"
       id="path1296-7" />
    <path
       style="fill:none;stroke:#788ccf;stroke-width:0.8;stroke-linecap:butt;stroke-linejoin:miter;stroke-opacity:1;stroke-miterlimit:4;stroke-dasharray:none"
       d="m 35.692154,156.17016 6.806033,0.0676"
       id="path1518" />
    <path
       style="fill:none;stroke:#788ccf;stroke-width:0.8;stroke-linecap:butt;stroke-linejoin:miter;stroke-opacity:1;stroke-miterlimit:4;stroke-dasharray:none"
       d="m 36.609546,141.8922 c 0.682134,0.74429 1.364004,1.48829 1.365056,2.32878 0.0011,0.84048 -0.678428,1.77759 -1.357891,2.71468"
       id="path1633" />
    <path
       style="fill:none;stroke:#788ccf;stroke-width:0.8;stroke-linecap:butt;stroke-linejoin:miter;stroke-opacity:1;stroke-miterlimit:4;stroke-dasharray:none"
       d="m 42.23989,141.99983 c -0.687785,0.72419 -1.375299,1.44809 -1.379169,2.27852 -0.0039,0.83043 0.67561,1.76754 1.355073,2.70463"
       id="path1633-1" />
    <path
       style="fill:none;stroke:#788ccf;stroke-width:0.8;stroke-linecap:butt;stroke-linejoin:miter;stroke-opacity:1;stroke-miterlimit:4;stroke-dasharray:none"
       d="m 36.633642,146.87535 c -0.49514,0.78048 -0.990237,1.56089 -1.204171,2.46646 -0.213935,0.90558 -0.14677,1.93605 0.122055,2.80435 0.268824,0.86831 0.7391,1.57436 1.196462,1.97022 0.457362,0.39586 0.90167,0.48175 1.297923,0.78291 0.396253,0.30117 0.744519,0.81734 1.092589,1.33322"
       id="path3022" />
    <path
       style="fill:none;stroke:#788ccf;stroke-width:0.8;stroke-linecap:butt;stroke-linejoin:miter;stroke-opacity:1;stroke-miterlimit:4;stroke-dasharray:none"
       d="m 42.215794,146.98298 c 0.49514,0.78048 0.990237,1.56089 1.204171,2.46646 0.213935,0.90558 0.14677,1.93605 -0.122055,2.80435 -0.268824,0.86831 -0.7391,1.57436 -1.229346,1.94953 -0.490246,0.37518 -0.999427,0.41965 -1.442398,0.70067 -0.44297,0.28102 -0.818137,0.79814 -1.193105,1.31499"
       id="path3022-4" />
    <path
       style="fill:none;stroke:#788ccf;stroke-width:0.8;stroke-linecap:butt;stroke-linejoin:miter;stroke-opacity:1;stroke-miterlimit:4;stroke-dasharray:none"
       d="m 39.272744,156.22609 -0.579583,46.43288"
       id="path3972" />
    <path
       style="fill:none;stroke:#788ccf;stroke-width:0.8;stroke-linecap:butt;stroke-linejoin:miter;stroke-opacity:1;stroke-miterlimit:4;stroke-dasharray:none"
       d="m 36.197182,203.22172 c -0.04462,0.73618 -0.08923,1.47213 -0.121092,2.48814 -0.03186,1.01601 -0.05099,2.31202 -0.01504,3.29621 0.03595,0.9842 0.126925,1.6565 0.367671,2.35985 0.240745,0.70335 0.631101,1.43766 1.105812,2.17453 0.474711,0.73686 1.033648,1.47618 1.99689,2.11315 0.963241,0.63697 2.330566,1.17168 3.298638,1.48797 0.968071,0.31629 1.53676,0.41418 2.557304,0.34837 1.020543,-0.0658 2.49289,-0.29524 3.618016,-0.61894 1.125126,-0.3237 1.903007,-0.74161 2.475057,-1.1416 0.572051,-0.39998 0.938317,-0.78206 1.271781,-1.31268 0.333464,-0.53063 0.634168,-1.20991 0.729855,-2.09205 0.09569,-0.88214 -0.01373,-1.96723 0.07045,-2.8597 0.08418,-0.89247 0.362045,-1.59209 0.757848,-2.03292 0.395804,-0.44084 0.909307,-0.62265 1.366923,-0.89895 0.457616,-0.27629 0.85945,-0.64708 1.206691,-1.07709 0.347241,-0.43 0.639925,-0.91927 0.74641,-1.67149 0.106485,-0.75221 0.0267,-1.76752 -0.228524,-2.5328 -0.255229,-0.76529 -0.6861,-1.2805 -1.084065,-1.65275 -0.397965,-0.37225 -0.763066,-0.60141 -1.078614,-0.77167 -0.315547,-0.17026 -0.581531,-0.28155 -0.789653,-0.48064 -0.208122,-0.1991 -0.358211,-0.48617 -0.433428,-0.68121 -0.07522,-0.19505 -0.07539,-0.29802 0.04369,-12.30552 0.11908,-12.00749 0.357411,-35.91854 0.476504,-47.86679 0.119093,-11.94825 0.118945,-11.93355 0.118795,-11.91855"
       id="path3974" />
    <path
       style="fill:none;stroke:#788ccf;stroke-width:0.8;stroke-linecap:butt;stroke-linejoin:miter;stroke-opacity:1;stroke-miterlimit:4;stroke-dasharray:none"
       d="m 54.655074,125.57463 c -1.525567,2.6e-4 -3.44095,-0.0266 -4.967027,-0.0269"
       id="path5246" />
    <path
       style="fill:none;stroke:#788ccf;stroke-width:0.8;stroke-linecap:butt;stroke-linejoin:miter;stroke-opacity:1;stroke-miterlimit:4;stroke-dasharray:none"
       d="m 49.688046,125.54773 -0.892924,71.1974"
       id="path5812" />
    <path
       style="fill:none;stroke:#788ccf;stroke-width:0.8;stroke-linecap:butt;stroke-linejoin:miter;stroke-opacity:1;stroke-miterlimit:4;stroke-dasharray:none"
       d="m 48.795122,196.74513 c -0.182552,0.45818 -0.365053,0.91624 -0.602974,1.27328 -0.23792,0.35703 -0.531318,0.6132 -0.807397,0.77529 -0.27608,0.16209 -0.534982,0.23013 -0.804047,0.43629 -0.269066,0.20616 -0.548068,0.55033 -0.760893,0.87328 -0.212825,0.32294 -0.359432,0.62454 -0.48128,0.954 -0.121848,0.32945 -0.218932,0.68668 -0.269119,1.07373 -0.05019,0.38706 -0.05352,0.80385 -0.06095,1.14441 -0.0074,0.34057 -0.01896,0.60491 -0.03047,0.869"
       id="path5814" />
    <path
       style="fill:none;stroke:#788ccf;stroke-width:0.8;stroke-linecap:butt;stroke-linejoin:miter;stroke-opacity:1;stroke-miterlimit:4;stroke-dasharray:none"
       d="m 44.96949,204.03947 c 0.126998,0.31926 0.253867,0.6382 0.397192,0.90326 0.143325,0.26505 0.302998,0.47622 0.567592,0.75346 0.264594,0.27724 0.634035,0.62056 1.024049,0.87417 0.390014,0.25361 0.800517,0.41761 1.129748,0.62333 0.32923,0.20572 0.57721,0.453 0.748523,0.70393 0.171313,0.25093 0.266094,0.50544 0.338176,0.81079 0.07208,0.30535 0.121537,0.66153 0.132168,0.92776 0.01063,0.26622 -0.01748,0.44254 -0.05426,0.74138 -0.03677,0.29883 -0.08221,0.72013 -0.175793,1.01362 -0.09358,0.2935 -0.2353,0.45937 -0.446549,0.64762 -0.211249,0.18826 -0.492065,0.39893 -0.758342,0.55341 -0.266276,0.15448 -0.51808,0.25278 -0.795621,0.33395 -0.277541,0.0812 -0.58085,0.14519 -0.956075,0.16329 -0.375225,0.0181 -0.822424,-0.01 -1.222025,-0.0368 -0.399602,-0.0271 -0.751593,-0.0534 -1.030006,-0.12886 -0.278412,-0.0755 -0.483254,-0.20032 -0.730134,-0.35977 -0.24688,-0.15945 -0.53577,-0.35352 -0.832721,-0.74115 -0.296951,-0.38764 -0.601778,-0.96889 -0.783777,-1.40102 -0.182,-0.43214 -0.241036,-0.71507 -0.29257,-1.11801 -0.05154,-0.40294 -0.09551,-0.92577 -0.09925,-1.99984 -0.0037,-1.07408 0.03281,-2.69927 0.06937,-4.32475"
       id="path5818" />
    <path
       style="fill:none;stroke:#788ccf;stroke-width:0.8;stroke-linecap:butt;stroke-linejoin:miter;stroke-opacity:1;stroke-miterlimit:4;stroke-dasharray:none"
       d="m 36.173957,204.30175 c 0.205032,-0.49131 0.560654,-0.91858 1.006595,-1.20938 0.44594,-0.2908 0.980334,-0.44391 1.512609,-0.4334 0.548405,0.0108 1.092083,0.1956 1.533524,0.52117 0.441441,0.32557 0.778567,0.79041 0.950913,1.31114"
       id="path6710" />
    <text
       xml:space="preserve"
       style="font-style:normal;font-weight:normal;font-size:10.5833px;line-height:1.25;font-family:sans-serif;fill:#788ccf;fill-opacity:1;stroke:none;stroke-width:0.264583"
       x="43.254429"
       y="116.49161"
       id="text8124"><tspan
         id="tspan8122"
         style="stroke-width:0.264583"
         x="43.254429"
         y="116.49161">а</tspan></text>
    <text
       xml:space="preserve"
       style="font-style:normal;font-weight:normal;font-size:10.5833px;line-height:1.25;font-family:sans-serif;fill:#788ccf;fill-opacity:1;stroke:none;stroke-width:0.264583"
       x="102.38266"
       y="96.3022"
       id="text16206"><tspan
         id="tspan16204"
         style="stroke-width:0.264583"
         x="102.38266"
         y="96.3022">б</tspan></text>
    <text
       xml:space="preserve"
       style="font-style:normal;font-weight:normal;font-size:10.5833px;line-height:1.25;font-family:sans-serif;fill:#788ccf;fill-opacity:1;stroke:none;stroke-width:0.264583"
       x="150.06596"
       y="80.920982"
       id="text22426"><tspan
         id="tspan22424"
         style="stroke-width:0.264583"
         x="150.06596"
         y="80.920982">в</tspan></text>
    <path
       style="fill:none;stroke:#788ccf;stroke-width:0.8;stroke-linecap:butt;stroke-linejoin:miter;stroke-opacity:1;stroke-miterlimit:4;stroke-dasharray:none"
       d="m 87.786354,102.45886 -1.115115,85.85808"
       id="path24113" />
    <path
       style="fill:none;stroke:#788ccf;stroke-width:0.8;stroke-linecap:butt;stroke-linejoin:miter;stroke-opacity:1;stroke-miterlimit:4;stroke-dasharray:none"
       d="m 86.671239,188.31694 c -0.324679,0.0959 -0.649547,0.1919 -0.963815,0.34488 -0.314268,0.15299 -0.617815,0.36298 -0.917345,0.63736 -0.29953,0.27438 -0.594942,0.61308 -0.828692,0.98343 -0.233751,0.37035 -0.405774,0.7722 -0.504702,1.14276 -0.09893,0.37056 -0.124783,0.70966 -0.188908,2.95491 -0.06412,2.24524 -0.166525,6.39644 -0.268922,10.54747"
       id="path24115" />
    <path
       style="fill:none;stroke:#788ccf;stroke-width:0.8;stroke-linecap:butt;stroke-linejoin:miter;stroke-opacity:1;stroke-miterlimit:4;stroke-dasharray:none"
       d="m 82.998854,204.92775 c 0,0 0,0 0.02998,0.22867 0.02998,0.22867 0.08989,0.6857 0.227451,1.14151 0.137556,0.45581 0.352631,0.91035 0.661623,1.32114 0.308991,0.41079 0.711753,0.77788 1.130643,1.01991 0.418891,0.24202 0.853848,0.35914 1.288502,0.47617"
       id="path24361" />
    <path
       style="fill:none;stroke:#788ccf;stroke-width:0.8;stroke-linecap:butt;stroke-linejoin:miter;stroke-opacity:1;stroke-miterlimit:4;stroke-dasharray:none"
       d="m 91.734726,102.50145 -1.016364,85.63982"
       id="path24113-8" />
    <path
       style="fill:none;stroke:#788ccf;stroke-width:0.8;stroke-linecap:butt;stroke-linejoin:miter;stroke-opacity:1;stroke-miterlimit:4;stroke-dasharray:none"
       d="m 90.718362,188.14127 c 0.324679,0.0959 0.649547,0.1919 0.963815,0.34488 0.314268,0.15299 0.617815,0.36298 0.917345,0.63736 0.29953,0.27438 0.594942,0.61308 0.828692,0.98343 0.233751,0.37035 0.405774,0.7722 0.504702,1.14276 0.09893,0.37056 0.124783,0.70966 0.126703,2.99822 0.0019,2.28856 -0.02008,6.52639 -0.04207,10.76405"
       id="path24115-5" />
    <path
       style="fill:none;stroke:#788ccf;stroke-width:0.8;stroke-linecap:butt;stroke-linejoin:miter;stroke-opacity:1;stroke-miterlimit:4;stroke-dasharray:none"
       d="m 94.017549,205.01197 c 0.03106,-0.23702 0.06209,-0.47378 0.04766,-0.36375 -0.01443,0.11002 -0.07435,0.56705 -0.165168,1.09795 -0.09082,0.53091 -0.212637,1.13621 -0.461987,1.60605 -0.249349,0.46983 -0.62543,0.80419 -1.147825,1.0767 -0.522396,0.27252 -1.189328,0.48197 -1.855683,0.69123"
       id="path24361-1" />
    <path
       style="fill:none;stroke:#788ccf;stroke-width:0.8;stroke-linecap:butt;stroke-linejoin:miter;stroke-opacity:1;stroke-miterlimit:4;stroke-dasharray:none"
       d="m 87.697815,102.45789 c 1.379531,0.0149 2.758803,0.0297 4.137803,0.0446"
       id="path25002" />
    <path
       style="fill:none;stroke:#788ccf;stroke-width:0.8;stroke-linecap:butt;stroke-linejoin:miter;stroke-opacity:1;stroke-miterlimit:4;stroke-dasharray:none"
       d="m 102.48011,102.82293 c -0.008,4.03524 -0.0153,8.07022 -0.22287,10.43663 -0.2076,2.36642 -0.61511,3.06443 -0.82464,3.5848 -0.20953,0.52037 -0.22109,0.86289 -0.22297,1.28865 -0.002,0.42575 0.006,0.93469 0.27901,1.64801 0.27309,0.71331 0.81125,1.63089 1.06693,2.1176 0.25569,0.48672 0.22907,0.54282 0.2121,0.78912 -0.017,0.2463 -0.0244,0.68267 -0.0856,1.06009 -0.0613,0.37742 -0.17631,0.69598 -0.31261,0.9658 -0.1363,0.26982 -0.29385,0.49098 -0.46412,0.73897 -0.17026,0.24799 -0.35324,0.52277 -0.52545,0.82099 -0.17221,0.29823 -0.33363,0.61983 -0.4339,0.84077 -0.10026,0.22093 -0.13939,0.34117 -0.20534,0.56822 -0.066,0.22705 -0.15875,0.56094 -0.21877,0.95813 -0.06,0.39719 -0.0873,0.85761 -0.1009,1.31258 -0.0136,0.45497 -0.0136,0.90447 0.0359,1.30389 0.0495,0.39942 0.1485,0.74871 0.28678,1.19906 0.13829,0.45035 0.31586,1.00175 0.55929,1.5483 0.24342,0.54655 0.5526,1.08822 0.89063,1.51475 0.33803,0.42654 0.70479,0.73798 1.03288,0.94963 0.32809,0.21166 0.61746,0.32363 0.90653,0.43548"
       id="path25461" />
    <path
       style="fill:none;stroke:#788ccf;stroke-width:0.8;stroke-linecap:butt;stroke-linejoin:miter;stroke-opacity:1;stroke-miterlimit:4;stroke-dasharray:none"
       d="m 106.495,102.74148 c -0.0338,4.22124 -0.0676,8.44222 0.11457,10.6546 0.18217,2.21238 0.57984,2.41619 0.82304,2.88613 0.2432,0.46994 0.33186,1.20517 0.34073,1.88566 0.009,0.68048 -0.062,1.30569 -0.36219,2.01292 -0.30021,0.70722 -0.82953,1.49603 -1.0899,2.04799 -0.26036,0.55197 -0.25196,0.86595 -0.22725,1.15311 0.0247,0.28716 0.0653,0.54299 0.1323,0.78686 0.067,0.24387 0.16016,0.47457 0.30322,0.73435 0.14305,0.25978 0.33542,0.54775 0.52347,0.8297 0.18805,0.28194 0.37066,0.55616 0.52661,0.87648 0.15596,0.32031 0.28457,0.6852 0.36295,0.98927 0.0784,0.30407 0.10644,0.54668 0.1327,0.81299 0.0263,0.2663 0.0506,0.55483 0.0563,0.85577 0.006,0.30094 -0.007,0.6134 -0.0401,1.02228 -0.033,0.40888 -0.0861,0.91412 -0.13421,1.26579 -0.0481,0.35166 -0.0912,0.55014 -0.1225,0.72857 -0.0313,0.17844 -0.051,0.33685 -0.1377,0.68853 -0.0867,0.35169 -0.23996,0.89462 -0.51721,1.37055 -0.27725,0.47594 -0.67801,0.8836 -1.06185,1.2432 -0.38383,0.3596 -0.75059,0.67104 -1.07868,0.88269 -0.32809,0.21166 -0.61746,0.32363 -0.90653,0.43548"
       id="path25461-2" />
    <path
       style="fill:none;stroke:#788ccf;stroke-width:0.8;stroke-linecap:butt;stroke-linejoin:miter;stroke-opacity:1;stroke-miterlimit:4;stroke-dasharray:none"
       d="m 101.96962,135.21922 c -0.19416,17.78134 -0.38832,35.56241 -0.58247,53.34322"
       id="path27757" />
    <path
       style="fill:none;stroke:#788ccf;stroke-width:0.8;stroke-linecap:butt;stroke-linejoin:miter;stroke-opacity:1;stroke-miterlimit:4;stroke-dasharray:none"
       d="m 104.13299,136.9044 c -0.19844,17.10393 -0.39687,34.20758 -0.5953,51.31099"
       id="path27761" />
    <path
       style="fill:none;stroke:#788ccf;stroke-width:0.8;stroke-linecap:butt;stroke-linejoin:miter;stroke-opacity:1;stroke-miterlimit:4;stroke-dasharray:none"
       d="m 105.99278,188.82001 c 0.25831,-17.92735 0.51663,-35.85495 0.77495,-53.78284"
       id="path27765" />
    <path
       style="fill:none;stroke:#788ccf;stroke-width:0.8;stroke-linecap:butt;stroke-linejoin:miter;stroke-opacity:1;stroke-miterlimit:4;stroke-dasharray:none"
       d="m 101.93496,138.50439 c 1.59599,0.0235 3.19171,0.0469 4.78717,0.0704"
       id="path27769" />
    <path
       style="fill:none;stroke:#788ccf;stroke-width:0.8;stroke-linecap:butt;stroke-linejoin:miter;stroke-opacity:1;stroke-miterlimit:4;stroke-dasharray:none"
       d="m 112.19677,187.39896 0.9294,-84.57719 3.13404,0.0408 -1.08575,84.97276"
       id="path27773" />
    <path
       style="fill:none;stroke:#788ccf;stroke-width:0.8;stroke-linecap:butt;stroke-linejoin:miter;stroke-opacity:1;stroke-miterlimit:4;stroke-dasharray:none"
       d="m 112.19677,187.39896 c -0.21799,0.91051 -0.69331,1.75795 -1.35661,2.41869 -0.6633,0.66075 -1.51256,1.13278 -2.42391,1.34726 -0.12008,0.0283 -0.24118,0.0522 -0.363,0.0716"
       id="path27940" />
    <path
       style="fill:none;stroke:#788ccf;stroke-width:0.8;stroke-linecap:butt;stroke-linejoin:miter;stroke-opacity:1;stroke-miterlimit:4;stroke-dasharray:none"
       d="m 115.17446,187.83533 c -0.22487,1.651 -1.00279,3.2218 -2.17969,4.40131 -1.17691,1.17952 -2.74598,1.96092 -4.39647,2.18946 -0.15379,0.0213 -0.30822,0.0379 -0.46301,0.0499"
       id="path27944" />
    <path
       style="fill:none;stroke:#788ccf;stroke-width:0.8;stroke-linecap:butt;stroke-linejoin:miter;stroke-opacity:1;stroke-miterlimit:4;stroke-dasharray:none"
       d="m 108.05325,191.23651 c -0.2077,-0.48748 -0.41554,-0.97529 -0.722,-1.34254 -0.30646,-0.36726 -0.7117,-0.61383 -0.95125,-0.79262 -0.23955,-0.17879 -0.31328,-0.28989 -0.75929,-0.44973 -0.446,-0.15984 -1.26434,-0.36817 -2.03395,-0.41404 -0.7696,-0.0459 -1.49032,0.0708 -2.13001,0.32107 -0.63969,0.25025 -1.19818,0.63404 -1.610572,1.06624 -0.412396,0.43221 -0.678573,0.91267 -0.801879,1.44992 -0.123307,0.53726 -0.103801,1.1311 -0.0843,1.72467"
       id="path28658" />
    <path
       style="fill:none;stroke:#788ccf;stroke-width:0.8;stroke-linecap:butt;stroke-linejoin:miter;stroke-opacity:1;stroke-miterlimit:4;stroke-dasharray:none"
       d="m 98.959994,192.79948 -0.05067,6.37886 c 0,0 0.848611,1.74906 1.882296,1.86826 l -0.17829,8.59377 c 0,0 -0.30585,4.14925 -3.727556,4.71966"
       id="path28984" />
    <path
       style="fill:none;stroke:#788ccf;stroke-width:0.8;stroke-linecap:butt;stroke-linejoin:miter;stroke-opacity:1;stroke-miterlimit:4;stroke-dasharray:none"
       d="m 96.885769,214.36003 c 0,0 -5.919001,0.93474 -6.451224,-5.23988"
       id="path28986" />
    <path
       style="fill:none;stroke:#788ccf;stroke-width:0.8;stroke-linecap:butt;stroke-linejoin:miter;stroke-opacity:1;stroke-miterlimit:4;stroke-dasharray:none"
       d="m 86.337052,209.11515 c 0.09832,0.8364 0.196607,1.6725 0.422231,2.48348 0.225625,0.81098 0.578462,1.59678 0.95018,2.21755 0.371717,0.62077 0.7622,1.07652 1.15676,1.45574 0.39456,0.37922 0.793122,0.68195 1.191692,0.96881 0.39857,0.28686 0.797109,0.55784 1.265185,0.78846 0.468076,0.23063 1.005652,0.42098 1.550624,0.56474 0.544971,0.14376 1.097315,0.24096 1.662503,0.28402 0.565187,0.0431 1.143223,0.032 1.680499,0.0322 0.537276,2.1e-4 1.033756,0.0116 1.650573,-0.1092 0.616818,-0.12084 1.354051,-0.37388 1.874992,-0.59255 0.520939,-0.21867 0.825639,-0.40296 1.232669,-0.61669 0.40704,-0.21374 0.91635,-0.45692 1.30578,-0.73566 0.38944,-0.27873 0.6591,-0.59308 0.92462,-0.8777 0.26552,-0.28461 0.52686,-0.53944 0.80381,-0.87618 0.27694,-0.33674 0.56952,-0.75541 0.81846,-1.16503 0.24895,-0.40961 0.45428,-0.81019 0.59017,-1.20131 0.13589,-0.39111 0.20232,-0.77283 0.26899,-2.58436 0.0667,-1.81154 0.13357,-5.05279 0.20047,-8.29436"
       id="path30064" />
    <path
       style="fill:none;stroke:#788ccf;stroke-width:0.8;stroke-linecap:butt;stroke-linejoin:miter;stroke-opacity:1;stroke-miterlimit:4;stroke-dasharray:none"
       d="m 108.13529,194.476 c -0.0325,1.56308 -0.0649,3.12591 -0.28599,4.10282 -0.22105,0.97691 -0.61532,1.3535 -0.97373,1.6356 -0.35841,0.2821 -0.67331,0.46238 -0.98831,0.64272"
       id="path30068" />
    <path
       style="fill:none;stroke:#788ccf;stroke-width:0.8;stroke-linecap:butt;stroke-linejoin:miter;stroke-opacity:1;stroke-miterlimit:4;stroke-dasharray:none"
       d="m 102.48011,102.82293 c 1.33855,-0.0272 2.67685,-0.0543 4.01489,-0.0815"
       id="path30375" />
    <path
       style="fill:none;stroke:#788ccf;stroke-width:0.8;stroke-linecap:butt;stroke-linejoin:miter;stroke-opacity:1;stroke-miterlimit:4;stroke-dasharray:none"
       d="m 149.58627,87.385685 c -0.47758,33.664905 -0.95515,67.329545 -1.1904,84.508035 -0.23525,17.1785 -0.22818,17.87083 -0.40253,18.65148 -0.17435,0.78064 -0.53005,1.64968 -0.99831,2.41311 -0.46826,0.76342 -1.04911,1.4213 -1.66661,1.93027 -0.61751,0.50897 -1.27174,0.86907 -1.94957,1.24987 -0.67783,0.3808 -1.37921,0.78229 -2.07322,1.32273 -0.69401,0.54045 -1.38052,1.21977 -1.89014,1.84351 -0.50962,0.62373 -0.84226,1.19175 -1.10855,1.70587 -0.26629,0.51413 -0.4662,0.9743 -0.56613,1.50282 -0.0999,0.52852 -0.0999,1.12522 -0.05,1.80105 0.0499,0.67583 0.1497,1.43073 0.39852,2.12858 0.24883,0.69784 0.64652,1.33858 1.13282,1.94995 0.48631,0.61136 1.06112,1.19334 1.89559,1.82132 0.83448,0.62799 1.92851,1.30201 2.57974,1.72828 0.65122,0.42627 0.85963,0.60471 1.02793,0.77928 0.16829,0.17456 0.29652,0.34516 0.58348,0.90918 0.28697,0.56401 0.73272,1.52136 1.03601,2.08621 0.30328,0.56486 0.46398,0.73722 0.76549,1.06668 0.30151,0.32947 0.74381,0.81601 1.1951,1.13089 0.45129,0.31488 0.91147,0.45824 1.48798,0.54254 0.57651,0.0843 1.26936,0.10959 1.85149,0.0741 0.58213,-0.0355 1.05361,-0.13181 1.56693,-0.39673 0.51332,-0.26492 1.06863,-0.69846 1.54686,-1.18065 0.47823,-0.48218 0.87942,-1.01305 1.29884,-1.69343 0.41943,-0.68038 0.85707,-1.51028 1.13817,-2.00366 0.2811,-0.49339 0.40562,-0.65016 0.86154,-0.91361 0.45592,-0.26346 1.24307,-0.63349 1.93971,-1.02161 0.69665,-0.38812 1.30279,-0.79433 1.85821,-1.27115 0.55542,-0.47681 1.06015,-1.02425 1.4708,-1.61972 0.41065,-0.59547 0.72724,-1.23901 0.95153,-1.7355 0.22429,-0.49649 0.35628,-0.84593 0.42196,-1.48216 0.0657,-0.63623 0.065,-1.55934 -0.009,-2.23912 -0.0737,-0.67979 -0.2206,-1.11628 -0.41431,-1.58047 -0.1937,-0.4642 -0.43427,-0.95607 -0.79028,-1.46592 -0.356,-0.50986 -0.82752,-1.03762 -1.52012,-1.60443 -0.6926,-0.56681 -1.6063,-1.17255 -2.31908,-1.65767 -0.71278,-0.48513 -1.22459,-0.84962 -1.62798,-1.24479 -0.40338,-0.39518 -0.69822,-0.82109 -0.97812,-1.2703 -0.2799,-0.4492 -0.5448,-0.92167 -0.74275,-1.45053 -0.19795,-0.52887 -0.32883,-1.11407 -0.42166,-1.61498 -0.0928,-0.50092 -0.14758,-0.9175 0.0309,-18.1866 0.17846,-17.26909 0.59017,-51.3893 0.79669,-68.4597 0.20652,-17.070387 0.20785,-17.090205 0.20851,-17.107528 6.7e-4,-0.01732 6.4e-4,-0.03213 6.2e-4,-0.04721"
       id="path30379" />
    <path
       style="fill:none;stroke:#788ccf;stroke-width:0.8;stroke-linecap:butt;stroke-linejoin:miter;stroke-opacity:1;stroke-miterlimit:4;stroke-dasharray:none"
       d="m 149.58627,87.385683 c 2.44258,-0.03365 4.8849,-0.06756 7.32695,-0.101746"
       id="path30383" />
    <path
       style="fill:none;stroke:#788ccf;stroke-width:0.8;stroke-linecap:butt;stroke-linejoin:miter;stroke-opacity:1;stroke-miterlimit:4;stroke-dasharray:none"
       d="M 161.62592,82.331932 161.43453,111.5752"
       id="path30385" />
    <path
       style="fill:none;stroke:#788ccf;stroke-width:0.8;stroke-linecap:butt;stroke-linejoin:miter;stroke-opacity:1;stroke-miterlimit:4;stroke-dasharray:none"
       d="m 161.43453,111.5752 c -0.27926,0.49671 -0.55847,0.99334 -0.79068,1.58153 -0.23222,0.58819 -0.41743,1.26783 -0.53893,1.94758 -0.12151,0.67975 -0.17933,1.35949 -0.20519,1.9926 -0.0258,0.63311 -0.0198,1.21953 0.0637,1.84524 0.0835,0.6257 0.24419,1.29061 0.45774,1.84582 0.21354,0.55522 0.47977,1.00072 0.7452,1.36814 0.26543,0.36743 0.52997,0.6568 0.69509,0.87281 0.16513,0.21602 0.23091,0.3586 0.26373,0.65056 0.0328,0.29197 0.0328,0.73336 0.0279,1.09139 -0.005,0.35803 -0.0147,0.63267 -0.0666,0.90173 -0.0519,0.26906 -0.14577,0.53263 -0.30218,0.95611 -0.15642,0.42348 -0.37535,1.00687 -0.57762,1.44072 -0.20226,0.43384 -0.38787,0.7182 -0.60743,1.14442 -0.21957,0.42622 -0.47307,0.99422 -0.62479,1.41375 -0.15172,0.41954 -0.20166,0.69048 -0.23394,0.98333 -0.0323,0.29285 -0.0469,0.60753 -0.0665,1.17165 -0.0196,0.56412 -0.0441,1.37765 -0.0159,2.05632 0.0282,0.67866 0.10899,1.22239 0.25646,1.72492 0.14748,0.50254 0.3615,0.96382 0.68239,1.61442 0.32089,0.6506 0.74862,1.49048 1.13591,2.24593 0.38729,0.75546 0.73411,1.42646 1.08078,2.09715"
       id="path30387" />
    <path
       style="fill:none;stroke:#788ccf;stroke-width:0.8;stroke-linecap:butt;stroke-linejoin:miter;stroke-opacity:1;stroke-miterlimit:4;stroke-dasharray:none"
       d="m 156.6567,104.07839 c 1.60174,0.0644 3.2032,0.12886 4.80438,0.19328"
       id="path30391" />
    <path
       style="fill:none;stroke:#788ccf;stroke-width:0.8;stroke-linecap:butt;stroke-linejoin:miter;stroke-opacity:1;stroke-miterlimit:4;stroke-dasharray:none"
       d="m 156.55062,107.65848 c 1.5743,0.0119 3.14833,0.0239 4.72209,0.0358"
       id="path30395" />
    <path
       style="fill:none;stroke:#788ccf;stroke-width:0.8;stroke-linecap:butt;stroke-linejoin:miter;stroke-opacity:1;stroke-miterlimit:4;stroke-dasharray:none"
       d="m 165.52608,82.455429 c -0.14486,9.770063 -0.28971,19.539871 -0.43456,29.309411"
       id="path30399" />
    <path
       style="fill:none;stroke:#788ccf;stroke-width:0.8;stroke-linecap:butt;stroke-linejoin:miter;stroke-opacity:1;stroke-miterlimit:4;stroke-dasharray:none"
       d="m 165.09152,111.76484 c 0.33618,0.83269 0.67224,1.66508 0.91232,2.43452 0.24007,0.76944 0.38422,1.47592 0.45626,2.1108 0.072,0.63487 0.072,1.19813 -0.0283,1.77195 -0.10029,0.57382 -0.30083,1.15828 -0.53871,1.86564 -0.23788,0.70736 -0.5131,1.53757 -0.83613,2.11125 -0.32302,0.57368 -0.69389,0.89097 -0.90752,1.25761 -0.21363,0.36664 -0.26995,0.78234 -0.27427,1.22103 -0.004,0.4387 0.0433,0.90028 0.13222,1.28644 0.0889,0.38617 0.21898,0.69685 0.36063,1.11522 0.14166,0.41838 0.29492,0.9444 0.48103,1.35513 0.18611,0.41074 0.40493,0.70614 0.58913,1.08172 0.18421,0.37557 0.33391,0.83127 0.42112,1.69199 0.0872,0.86071 0.11201,2.12643 0.11475,2.99393 0.003,0.86749 -0.0166,1.33672 -0.0973,1.75771 -0.0807,0.421 -0.22289,0.79385 -0.37371,1.19842 -0.15082,0.40457 -0.31032,0.84085 -0.76153,1.76623 -0.45121,0.92537 -1.18802,2.32827 -1.92784,3.73689"
       id="path30403" />
    <path
       style="fill:none;stroke:#788ccf;stroke-width:0.8;stroke-linecap:butt;stroke-linejoin:miter;stroke-opacity:1;stroke-miterlimit:4;stroke-dasharray:none"
       d="m 162.81369,142.52132 c -0.15377,13.0787 -0.30754,26.15714 -0.46131,39.23531"
       id="path30407" />
    <path
       style="fill:none;stroke:#788ccf;stroke-width:0.8;stroke-linecap:butt;stroke-linejoin:miter;stroke-opacity:1;stroke-miterlimit:4;stroke-dasharray:none"
       d="m 161.16746,122.12932 c -0.0302,2.03264 -0.0604,4.06501 -0.0906,6.09712"
       id="path30411" />
    <path
       style="fill:none;stroke:#788ccf;stroke-width:0.8;stroke-linecap:butt;stroke-linejoin:miter;stroke-opacity:1;stroke-miterlimit:4;stroke-dasharray:none"
       d="m 164.86457,122.39167 c -0.0161,2.00619 -0.0323,4.01211 -0.0484,6.01778"
       id="path30415" />
    <path
       style="fill:none;stroke:#788ccf;stroke-width:0.8;stroke-linecap:butt;stroke-linejoin:miter;stroke-opacity:1;stroke-miterlimit:4;stroke-dasharray:none"
       d="m 161.18323,124.93059 c 1.21533,0.013 2.4304,0.0261 3.64521,0.0391"
       id="path30419" />
    <path
       style="fill:none;stroke:#788ccf;stroke-width:0.8;stroke-linecap:butt;stroke-linejoin:miter;stroke-opacity:1;stroke-miterlimit:4;stroke-dasharray:none"
       d="m 162.13397,123.49896 c 0.62781,0.0143 1.25535,0.0287 1.88262,0.043"
       id="path30423" />
    <path
       style="fill:none;stroke:#788ccf;stroke-width:0.8;stroke-linecap:butt;stroke-linejoin:miter;stroke-opacity:1;stroke-miterlimit:4;stroke-dasharray:none"
       d="m 160.95188,138.86487 c -0.19084,14.92346 -0.38167,29.84665 -0.5725,44.76958"
       id="path30749" />
    <path
       style="fill:none;stroke:#788ccf;stroke-width:0.8;stroke-linecap:butt;stroke-linejoin:miter;stroke-opacity:1;stroke-miterlimit:4;stroke-dasharray:none"
       d="m 164.6256,139.03158 c -0.15175,14.88815 -0.3035,29.77604 -0.45524,44.66366"
       id="path30753" />
    <path
       style="fill:none;stroke:#788ccf;stroke-width:0.8;stroke-linecap:butt;stroke-linejoin:miter;stroke-opacity:1;stroke-miterlimit:4;stroke-dasharray:none"
       d="m 160.88376,141.24064 c 1.23737,0.0288 2.47446,0.0575 3.71128,0.0863"
       id="path30761" />
    <path
       style="fill:none;stroke:#788ccf;stroke-width:0.8;stroke-linecap:butt;stroke-linejoin:miter;stroke-opacity:1;stroke-miterlimit:4;stroke-dasharray:none"
       d="m 149.28387,216.05406 c 0.822,0.0559 1.64373,0.11175 2.46516,0.1676"
       id="path30765" />
    <path
       style="fill:none;stroke:#788ccf;stroke-width:0.8;stroke-linecap:butt;stroke-linejoin:miter;stroke-opacity:1;stroke-miterlimit:4;stroke-dasharray:none"
       d="m 149.28387,216.05406 c 3.54505,-6.62291 7.08985,-13.24609 10.63437,-19.86952 -0.28524,0.51908 0.75417,-1.82086 0.34541,-2.82084 -1.33268,-0.67999 -0.99367,-7.97178 0.11572,-9.72925 0.21645,-0.48677 0.43263,-0.97379 0.64855,-1.46108 0.44175,-0.13865 0.88323,-0.27756 1.32445,-0.41674 0.34127,0.17565 0.68226,0.35102 1.023,0.52614 0.26526,0.4711 0.53025,0.94191 0.79498,1.41247 0.0995,0.49743 0.1988,0.99458 0.29781,1.49147 0.3526,0.0488 0.70492,0.0974 1.05698,0.14577 0.27163,-0.25485 0.54297,-0.50996 0.81406,-0.76533 0.25305,-0.37932 0.50582,-0.75889 0.75833,-1.13872 0.0261,-0.49178 0.052,-0.9838 0.0776,-1.47609 0.38693,-28.52298 0.77358,-57.04508 1.15998,-85.568014 0.0782,-0.255998 0.15617,-0.512249 0.23386,-0.768774 0.14981,-0.389995 0.29934,-0.78024 0.44861,-1.170757 0.35299,-0.370253 0.70571,-0.740757 1.05816,-1.11153 0.42885,-0.28937 0.85741,-0.578993 1.28572,-0.868887 0.41214,-0.07756 0.824,-0.15539 1.2356,-0.233479 4.82379,-0.01508 9.64713,-0.0304 14.4703,-0.046"
       id="path30769" />
    <path
       style="fill:none;stroke:#788ccf;stroke-width:0.8;stroke-linecap:butt;stroke-linejoin:miter;stroke-opacity:1;stroke-miterlimit:4;stroke-dasharray:none"
       d="m 187.27206,95.788429 c -4.90483,0.01268 -9.80992,0.02537 -12.28992,0.03472 -2.47999,0.0094 -2.53479,0.01539 -2.63211,0.06962 -0.0973,0.05423 -0.23694,0.156662 -0.33684,0.253354 -0.0999,0.09669 -0.15999,0.187569 -0.20901,0.284755 -0.049,0.09719 -0.0869,0.200586 -0.2988,14.549284 -0.21186,14.34871 -0.5977,42.94146 -0.8113,57.52465 -0.2136,14.58319 -0.25493,15.15624 -0.38493,15.70741 -0.13001,0.55117 -0.34864,1.08053 -0.64914,1.6176 -0.3005,0.53708 -0.68287,1.08191 -1.16476,1.5374 -0.48188,0.45549 -1.06336,0.82173 -1.63942,1.07499 -0.57606,0.25326 -1.14678,0.39355 -1.7177,0.53388"
       id="path30771" />
    <path
       style="fill:none;stroke:#788ccf;stroke-width:0.8;stroke-linecap:butt;stroke-linejoin:miter;stroke-opacity:1;stroke-miterlimit:4;stroke-dasharray:none"
       d="m 165.13813,188.97609 c -0.0264,0.70428 -0.0529,1.4083 -0.0815,1.99172 -0.0286,0.58342 -0.0595,1.04623 -0.19707,1.56792 -0.13755,0.5217 -0.38173,1.10236 -2.58464,5.05992 -2.20292,3.95755 -6.3644,11.29175 -10.52591,18.62601"
       id="path30775" />
    <path
       style="fill:none;stroke:#788ccf;stroke-width:0.8;stroke-linecap:butt;stroke-linejoin:miter;stroke-opacity:1;stroke-miterlimit:4;stroke-dasharray:none"
       d="m 165.28381,104.35596 c 0.95325,0.0183 1.90622,0.0365 2.85891,0.0548"
       id="path32351" />
    <path
       style="fill:none;stroke:#788ccf;stroke-width:0.8;stroke-linecap:butt;stroke-linejoin:miter;stroke-opacity:1;stroke-miterlimit:4;stroke-dasharray:none"
       d="m 165.26113,107.76617 c 0.98341,-0.003 1.96655,-0.005 2.94943,-0.008"
       id="path32355" />
    <path
       style="fill:none;stroke:#788ccf;stroke-width:0.8;stroke-linecap:butt;stroke-linejoin:miter;stroke-opacity:1;stroke-miterlimit:4;stroke-dasharray:none"
       d="m 161.62592,82.331932 c 1.30033,0.04117 2.60038,0.08234 3.90016,0.123497"
       id="path32359" />
    <path
       style="fill:none;stroke:#788ccf;stroke-width:0.8;stroke-linecap:butt;stroke-linejoin:miter;stroke-opacity:1;stroke-miterlimit:4;stroke-dasharray:none"
       d="m 163.61284,95.042333 c 2.37296,-2.309116 4.74592,-4.618231 7.11888,-6.927345"
       id="path32363" />
    <path
       style="fill:none;stroke:#788ccf;stroke-width:0.8;stroke-linecap:butt;stroke-linejoin:miter;stroke-opacity:1;stroke-miterlimit:4;stroke-dasharray:none"
       d="m 170.33043,96.421124 c 2.24074,2.250167 4.48122,4.500066 6.72143,6.749706"
       id="path32367" />
    <path
       style="fill:none;stroke:#788ccf;stroke-width:0.8;stroke-linecap:butt;stroke-linejoin:miter;stroke-opacity:1;stroke-miterlimit:4;stroke-dasharray:none"
       d="m 164.01659,123.54196 c 4.27546,-2.35927 8.55082,-4.7185 12.8261,-7.07767"
       id="path32371" />
    <path
       style="fill:none;stroke:#788ccf;stroke-width:0.8;stroke-linecap:butt;stroke-linejoin:miter;stroke-opacity:1;stroke-miterlimit:4;stroke-dasharray:none"
       d="m 166.12208,133.43062 c 3.44003,-1.6953 6.87996,-3.39055 10.31978,-5.08574"
       id="path32375" />
    <path
       style="fill:none;stroke:#788ccf;stroke-width:0.8;stroke-linecap:butt;stroke-linejoin:miter;stroke-opacity:1;stroke-miterlimit:4;stroke-dasharray:none"
       d="m 163.87344,140.94352 c 4.15693,4.47523 8.31361,8.95019 12.47004,13.42488"
       id="path32379" />
    <path
       style="fill:none;stroke:#788ccf;stroke-width:0.8;stroke-linecap:butt;stroke-linejoin:miter;stroke-opacity:1;stroke-miterlimit:4;stroke-dasharray:none"
       d="m 162.75314,158.46561 c 4.4103,4.63637 8.82034,9.27247 13.23013,13.9083"
       id="path32383" />
    <path
       style="fill:none;stroke:#788ccf;stroke-width:0.8;stroke-linecap:butt;stroke-linejoin:miter;stroke-opacity:1;stroke-miterlimit:4;stroke-dasharray:none"
       d="m 147.84618,200.23974 c -2.08463,-2.2573 -4.1695,-4.51488 -6.25464,-6.77273"
       id="path32387" />
    <path
       style="fill:none;stroke:#788ccf;stroke-width:0.8;stroke-linecap:butt;stroke-linejoin:miter;stroke-opacity:1;stroke-miterlimit:4;stroke-dasharray:none"
       d="m 145.74544,103.00019 c 2.30284,-2.31161 4.6057,-4.62324 6.90855,-6.934859"
       id="path32391" />
    <text
       xml:space="preserve"
       style="font-style:normal;font-weight:normal;font-size:8.46667px;line-height:1.25;font-family:sans-serif;fill:#788ccf;fill-opacity:1;stroke:none;stroke-width:0.264583"
       x="136.52148"
       y="195.5304"
       id="text38293"><tspan
         id="tspan38291"
         style="font-size:8.46667px;stroke-width:0.264583"
         x="136.52148"
         y="195.5304">1</tspan></text>
    <text
       xml:space="preserve"
       style="font-style:normal;font-weight:normal;font-size:8.46667px;line-height:1.25;font-family:sans-serif;fill:#788ccf;fill-opacity:1;stroke:none;stroke-width:0.264583"
       x="177.47134"
       y="156.97833"
       id="text47397"><tspan
         id="tspan47395"
         style="font-size:8.46667px;stroke-width:0.264583"
         x="177.47134"
         y="156.97833">7</tspan></text>
    <text
       xml:space="preserve"
       style="font-style:normal;font-weight:normal;font-size:8.46667px;line-height:1.25;font-family:sans-serif;fill:#788ccf;fill-opacity:1;stroke:none;stroke-width:0.264583"
       x="177.36584"
       y="175.36189"
       id="text53639"><tspan
         id="tspan53637"
         style="font-size:8.46667px;stroke-width:0.264583"
         x="177.36584"
         y="175.36189">8</tspan></text>
    <text
       xml:space="preserve"
       style="font-style:normal;font-weight:normal;font-size:8.46667px;line-height:1.25;font-family:sans-serif;fill:#788ccf;fill-opacity:1;stroke:none;stroke-width:0.264583"
       x="177.77602"
       y="130.59288"
       id="text60015"><tspan
         id="tspan60013"
         style="font-size:8.46667px;stroke-width:0.264583"
         x="177.77602"
         y="130.59288">6</tspan></text>
    <text
       xml:space="preserve"
       style="font-style:normal;font-weight:normal;font-size:8.46667px;line-height:1.25;font-family:sans-serif;fill:#788ccf;fill-opacity:1;stroke:none;stroke-width:0.264583"
       x="141.04546"
       y="105.75278"
       id="text63409"><tspan
         id="tspan63407"
         style="font-size:8.46667px;stroke-width:0.264583"
         x="141.04546"
         y="105.75278">2</tspan></text>
    <text
       xml:space="preserve"
       style="font-style:normal;font-weight:normal;font-size:8.46667px;line-height:1.25;font-family:sans-serif;fill:#788ccf;fill-opacity:1;stroke:none;stroke-width:0.264583"
       x="172.82362"
       y="87.844025"
       id="text68905"><tspan
         id="tspan68903"
         style="font-size:8.46667px;stroke-width:0.264583"
         x="172.82362"
         y="87.844025">3</tspan></text>
    <text
       xml:space="preserve"
       style="font-style:normal;font-weight:normal;font-size:8.46667px;line-height:1.25;font-family:sans-serif;fill:#788ccf;fill-opacity:1;stroke:none;stroke-width:0.264583"
       x="178.43587"
       y="106.03025"
       id="text72969"><tspan
         id="tspan72967"
         style="font-size:8.46667px;stroke-width:0.264583"
         x="178.43587"
         y="106.03025">4</tspan></text>
    <text
       xml:space="preserve"
       style="font-style:normal;font-weight:normal;font-size:8.46667px;line-height:1.25;font-family:sans-serif;fill:#788ccf;fill-opacity:1;stroke:none;stroke-width:0.264583"
       x="178.05363"
       y="118.87135"
       id="text78181"><tspan
         id="tspan78179"
         style="font-size:8.46667px;stroke-width:0.264583"
         x="178.05363"
         y="118.87135">5</tspan></text>
  </g>
</svg>
